<svg id="Layer_1" enable-background="new 0 0 512.026 512.026" height="512" viewBox="0 0 512.026 512.026" width="512" xmlns="http://www.w3.org/2000/svg"><g><path d="m214.485 511.779c-2.574.679-5.325-.064-7.212-1.952l-11.879-11.865-127.16-127.074c-1.69-1.69-2.475-4.087-2.107-6.449l2.941-19.191-19.318 2.885c-2.355.347-4.724-.438-6.414-2.114l-41.124-41.111c-1.888-1.888-2.63-4.639-1.952-7.227.686-2.581 2.701-4.61 5.282-5.31 51.463-14.043 88.926-49.003 89.301-49.349 2.956-2.786 7.587-2.722 10.451.141 0 0 0 0 .007.007l149.369 149.398 14.545 14.545c2.878 2.878 2.935 7.531.12 10.472-.346.375-35.44 37.675-49.533 88.933-.707 2.574-2.736 4.575-5.317 5.261z" fill="#ffa402"/><path d="m214.485 511.779c-2.574.679-5.325-.064-7.212-1.952l-11.879-11.865c8.888-45.46 48.5-93.105 59.277-105.394l14.545 14.545c2.878 2.878 2.935 7.531.12 10.472-.346.375-35.44 37.675-49.533 88.933-.708 2.574-2.737 4.575-5.318 5.261z" fill="#ff7e50"/><path d="m193.238 440.901c4.636-14.26 14.856-24.898 14.958-25.004 2.868-2.941 2.833-7.638-.066-10.537l-.058-.058c-2.96-2.897-7.708-2.847-10.607.113-.517.528-12.739 13.149-18.493 30.847-.903 2.777-.099 5.697 1.832 7.628.81.81 1.818 1.445 2.981 1.824 3.94 1.281 8.172-.874 9.453-4.813z" fill="#ff7e50"/><g><g><path d="m292.153 252.779c-1.407 1.407-3.316 2.199-5.296 2.199-1.994 0-3.896-.785-5.31-2.185l-16.292-16.264-5.558-5.544-.007-.007c-2.927-2.928-2.92-7.672-.007-10.6l213.107-213.654c5.989-6.004 14.531-7.998 22.203-5.94 3.755.983 7.297 2.942 10.246 5.862l.028.028c4.356 4.356 6.739 10.091 6.746 16.193.014 6.11-2.369 11.859-6.689 16.193z" fill="#d77d41"/><path d="m505.324 39.062-213.171 213.717c-1.407 1.407-3.316 2.199-5.296 2.199-1.994 0-3.896-.785-5.31-2.185l-16.292-16.264h.028c1.414 1.4 3.316 2.185 5.31 2.185 1.98 0 3.889-.792 5.296-2.199l213.171-213.717c4.32-4.335 6.703-10.084 6.689-16.193-.007-1.987-.262-3.939-.757-5.82 3.755.983 7.297 2.942 10.246 5.862l.028.028c4.356 4.356 6.739 10.091 6.746 16.193.015 6.11-2.368 11.859-6.688 16.194z" fill="#b5612a"/></g><path d="m275.635 425.234c-4.985 2.015-8.768-1.287-14.503-6.272-1.464-1.28-3.147-2.779-5.056-4.519-3.507-3.196-7.757-7.177-12.714-11.894-14.722-14.03-35.567-34.536-62.006-60.976l-5.657-5.657c-29.133-29.19-51.499-51.981-66.475-67.765-7.255-7.637-12.756-13.619-16.355-17.77-4.964-5.728-8.245-9.518-6.251-14.482 4.257-10.621 23.073-28.674 33.092-33.377 5.671-2.659 10.076 1.096 24.466 14.525 10.196 9.518 25.435 24.361 46.485 45.285 17.063-16.837 30.462-29.799 39.881-38.567 15.259-14.227 19.078-17.48 24.614-14.885 7.149 3.359 26.651 21.391 38.509 35.102 4.561 5.268 7.983 9.893 9.157 12.806 1.909 4.738-1.294 8.577-4.377 12.283-2.383 2.85-6.01 6.916-10.812 12.085-8.825 9.49-21.708 22.869-38.367 39.812 20.817 21.03 35.638 36.318 45.205 46.621 1.471 1.584 2.814 3.041 4.059 4.398 10.069 11.003 12.777 15.041 10.416 20.09-4.694 10.041-22.719 28.886-33.311 33.157z" fill="#7b99aa"/><g fill="#415e6f"><path d="m232.447 271.51c-4.14 0-7.497 3.356-7.497 7.497 0 4.14 3.356 7.497 7.497 7.497 4.14 0 7.497-3.356 7.497-7.497-.001-4.14-3.357-7.497-7.497-7.497z"/><ellipse cx="254.447" cy="257.006" rx="7.497" ry="7.497" transform="matrix(.109 -.994 .994 .109 -28.644 482.073)"/></g><g fill="#56788b"><path d="m235.344 307.553c38.813-38.249 58.322-63.571 58.322-63.571 4.561 5.268 7.983 9.893 9.157 12.806 1.909 4.738-1.294 8.577-4.377 12.283-2.383 2.85-6.01 6.916-10.812 12.085-8.825 9.49-21.708 22.869-38.367 39.812z"/><path d="m275.635 425.234c-4.985 2.015-8.768-1.287-14.503-6.272-1.464-1.28-3.147-2.779-5.056-4.519 26.057-18.152 42.455-42.456 42.455-42.456 10.069 11.003 12.777 15.041 10.416 20.09-4.695 10.041-22.72 28.886-33.312 33.157z"/></g></g></g></svg>