<svg id="Layer_1" viewBox="0 0 64 64" xmlns="http://www.w3.org/2000/svg"><path d="m41 17.5c.552 0 1-.447 1-1s-.448-1-1-1c-.827 0-1.5-.673-1.5-1.5s.673-1.5 1.5-1.5 1.5.673 1.5 1.5c0 .553.448 1 1 1s1-.447 1-1c0-1.93-1.57-3.5-3.5-3.5s-3.5 1.57-3.5 3.5 1.57 3.5 3.5 3.5z"/><path d="m23.434 37.303 13.93 11.47c.179.146.404.228.636.228h8c.556 0 1.001-.451 1-1.007-.002-2.152-1.012-6.242-4.662-7.645l3.678-9.195-.858-10.34c2.111-1.279 3.492-3.423 3.776-5.869l14.128-.883c.551-.034.97-.509.936-1.061s-.497-.96-1.061-.936l-14.016.876c-.366-2.744-2.124-5.048-4.543-6.182l12.413-4.827c.515-.2.77-.779.57-1.294-.199-.514-.776-.771-1.294-.569l-15.281 5.943c-4.204.112-7.602 3.478-7.769 7.668l-10.684 16.445c-1.518 2.326-1.044 5.412 1.102 7.179zm17.566-29.303c3.309 0 6 2.691 6 6 0 2.3-1.277 4.358-3.342 5.377-.805.408-1.724.623-2.658.623-3.309 0-6-2.691-6-6s2.691-6 6-6zm-16.992 23.215 9.456-14.555c1.1 3.106 4.058 5.34 7.536 5.34.759 0 1.507-.12 2.223-.327l.761 9.174-3.913 9.781c-.11.275-.092.586.049.848.142.261.392.445.683.504 3.035.607 3.875 3.468 4.107 5.02h-6.552l-13.653-11.242c-1.358-1.117-1.658-3.07-.697-4.543z"/><path d="m50.5 36c.827 0 1.5.673 1.5 1.5 0 .553.448 1 1 1s1-.447 1-1c0-1.93-1.57-3.5-3.5-3.5s-3.5 1.57-3.5 3.5 1.57 3.5 3.5 3.5c.552 0 1-.447 1-1s-.448-1-1-1c-.827 0-1.5-.673-1.5-1.5s.673-1.5 1.5-1.5z"/><path d="m10.5 49c-1.93 0-3.5 1.57-3.5 3.5 0 .553.448 1 1 1s1-.447 1-1c0-.827.673-1.5 1.5-1.5s1.5.673 1.5 1.5-.673 1.5-1.5 1.5c-.552 0-1 .447-1 1s.448 1 1 1c1.93 0 3.5-1.57 3.5-3.5s-1.57-3.5-3.5-3.5z"/><path d="m58.707 47.121c.195.195.452.293.708.293s.512-.098.707-.293c.565-.564.876-1.318.876-2.121s-.312-1.557-.876-2.121c-1.131-1.131-3.112-1.131-4.243 0-.39.391-.39 1.024 0 1.414.391.391 1.024.391 1.415 0 .374-.375 1.039-.375 1.414 0 .188.188.291.438.291.707s-.103.52-.291.707c-.391.39-.391 1.023 0 1.414z"/><path d="m17.586 23.414c.256 0 .512-.098.708-.293.39-.391.39-1.024 0-1.414-.188-.188-.291-.438-.291-.707s.103-.52.291-.707c.374-.375 1.039-.375 1.413 0 .391.391 1.024.391 1.415 0 .391-.39.391-1.023 0-1.414-1.131-1.131-3.113-1.131-4.243 0-.565.564-.876 1.318-.876 2.121s.312 1.557.876 2.121c.195.195.451.293.707.293z"/><path d="m51.035 8.263c.122.445.524.737.964.737.087 0 11.264-3.035 11.264-3.035.533-.146.847-.695.702-1.228-.146-.534-.696-.852-1.228-.702l-11 3c-.533.146-.847.695-.702 1.228z"/><path d="m63 54h-5.126c-.445-1.724-2.013-3-3.874-3s-3.428 1.276-3.874 3h-18.325c-.883-3.171-3.638-5.552-6.865-5.943-.462-3.415-3.396-6.057-6.937-6.057h-3.03l-.45-14.67c-.106-3.55-2.97-6.33-6.52-6.33h-6.999c-.552 0-1 .447-1 1v41c0 .553.448 1 1 1h62c.552 0 1-.447 1-1v-8c0-.553-.448-1-1-1zm-1 8h-60v-39h6c2.461 0 4.446 1.929 4.521 4.391l.48 15.64c.017.54.459.97 1 .97h4c2.757 0 5 2.243 5 5 0 .553.448 1 1 1 2.938 0 5.523 2.22 6.014 5.164.08.482.498.836.986.836h20c.552 0 1-.447 1-1 0-1.103.897-2 2-2s2 .897 2 2c0 .553.448 1 1 1h5v6z"/><path d="m30.369 30.32c.319 0 .633-.152.827-.437l3.63-5.32c.311-.456.194-1.078-.263-1.39-.456-.311-1.078-.194-1.39.263l-3.63 5.32c-.311.456-.194 1.078.263 1.39.172.117.369.174.562.174z"/><circle cx="62.5" cy="38.5" r="1.5"/><circle cx="21.5" cy="54.5" r="1.5"/><circle cx="7.5" cy="40.5" r="1.5"/><circle cx="12.5" cy="15.5" r="1.5"/></svg>