<svg id="Capa_1" enable-background="new 0 0 512 512" height="512" viewBox="0 0 512 512" width="512" xmlns="http://www.w3.org/2000/svg"><g><path d="m512 458.7c0-4.143-3.357-7.5-7.5-7.5h-5.954l-8.132-62.354 3.374-1.693c2.562-1.286 4.167-3.919 4.136-6.785-.032-2.866-1.694-5.464-4.283-6.693l-5.549-2.634-7.012-53.767 5.833-2.769c2.552-1.212 4.207-3.755 4.28-6.58.074-2.824-1.445-5.45-3.932-6.794l-8.915-4.818-6.86-52.601 8.996-4.861c2.355-1.273 3.854-3.704 3.932-6.38.078-2.677-1.276-5.19-3.554-6.599l-12.726-7.866-6.475-49.652 8.411-5.199c2.035-1.258 3.348-3.411 3.534-5.797.186-2.385-.777-4.716-2.593-6.274l-13.068-11.216-6.66-51.067h22.115v16h-2.012c-4.143 0-7.5 3.357-7.5 7.5s3.357 7.5 7.5 7.5h19.024c4.143 0 7.5-3.357 7.5-7.5s-3.357-7.5-7.5-7.5h-2.013v-23.501c0-4.143-3.357-7.5-7.5-7.5h-31.571l-2.8-21.47c-.487-3.735-3.67-6.53-7.438-6.53h-57.242c-3.768 0-6.95 2.795-7.438 6.53l-2.8 21.47h-31.568c-4.143 0-7.5 3.357-7.5 7.5v23.5h-2.012c-4.143 0-7.5 3.357-7.5 7.5s3.357 7.5 7.5 7.5h19.023c4.143 0 7.5-3.357 7.5-7.5s-3.357-7.5-7.5-7.5h-2.012v-16h22.115l-6.66 51.067-13.068 11.216c-1.815 1.559-2.778 3.89-2.593 6.274.187 2.386 1.499 4.539 3.534 5.797l8.411 5.199-1.623 12.446h-39.451c-28.923 0-52.453 23.531-52.453 52.454v47.547h-8.233v-43.5c0-4.143-3.357-7.5-7.5-7.5h-39.72v-37.667h1.325c4.142 0 7.5-3.357 7.5-7.5s-3.358-7.5-7.5-7.5h-1.325v-27.333h1.325c4.142 0 7.5-3.357 7.5-7.5s-3.358-7.5-7.5-7.5h-1.325v-27.333h1.325c4.142 0 7.5-3.357 7.5-7.5s-3.358-7.5-7.5-7.5h-1.325v-31.667h1.325c4.142 0 7.5-3.357 7.5-7.5s-3.358-7.5-7.5-7.5h-64.476c-4.142 0-7.5 3.357-7.5 7.5s3.358 7.5 7.5 7.5h1.325v31.667h-1.325c-4.142 0-7.5 3.357-7.5 7.5s3.358 7.5 7.5 7.5h1.325v27.333h-1.325c-4.142 0-7.5 3.357-7.5 7.5s3.358 7.5 7.5 7.5h1.325v27.333h-1.325c-4.142 0-7.5 3.357-7.5 7.5s3.358 7.5 7.5 7.5h1.325v37.667h-26.015c-4.142 0-7.5 3.357-7.5 7.5s3.358 7.5 7.5 7.5h120.06v206.4h-33.56v-42.95c0-14.033-11.417-25.45-25.45-25.45h-48.1c-14.033 0-25.45 11.417-25.45 25.45v42.95h-33.56v-206.4h16.06c4.142 0 7.5-3.357 7.5-7.5s-3.358-7.5-7.5-7.5h-23.56c-4.142 0-7.5 3.357-7.5 7.5v104.5h-41.357c-4.142 0-7.5 3.357-7.5 7.5v60.2c0 4.143 3.358 7.5 7.5 7.5s7.5-3.357 7.5-7.5v-52.7h33.86v94.4h-33.86v-11.7c0-4.143-3.358-7.5-7.5-7.5s-7.5 3.357-7.5 7.5v11.7h-5.04c-4.142 0-7.5 3.357-7.5 7.5s3.358 7.5 7.5 7.5h497c4.142 0 7.5-3.357 7.5-7.5zm-348.526-397.9h31.825v31.667h-31.825zm0 46.667h31.825v27.333h-31.825zm0 42.333h31.825v27.333h-31.825zm0 80v-37.667h31.825v37.667zm291.804 5.62-44.809 24.213-44.809-24.213 1.096-8.403 43.713-27.021 43.713 27.021zm-60.585 32.738-35.827 19.36 4.717-36.171zm70.102 40.241-54.326 25.79-54.326-25.79.331-2.538 53.995-29.178 53.995 29.178zm-71.814 34.093-44.009 20.893 5.132-39.349zm17.488 8.302 62.861 29.843-62.861 31.55-62.861-31.55zm-16.719 69.784-55.895 28.054 6.868-52.661zm16.719 8.392 44.291 22.23h-88.583zm72.615 19.662-55.895-28.054 49.027-24.607zm-11.118-85.248-44.009-20.893 38.877-18.456zm-9.894-75.866-35.827-19.36 31.11-16.811zm-10.391-79.683-26.947-16.657 22.926-14.172zm-74.555-60.33 33.344-28.62 33.344 28.62 1.719 13.182-35.063 21.674-35.063-21.674zm44.859-38.504 15.115-12.974 3.81 29.218zm-11.516-9.884-12.02-10.317h24.04zm-22.036-38.317h44.072l1.695 13h-47.463zm-4.594 35.227 15.115 12.974-18.925 16.244zm12.366 95.151-26.947 16.657 4.02-30.829zm-271.246 260.022v-42.95c0-5.763 4.688-10.45 10.45-10.45h48.1c5.762 0 10.45 4.688 10.45 10.45v42.95zm132.561 0v-155.4h36.173v29.7c0 4.143 3.357 7.5 7.5 7.5s7.5-3.357 7.5-7.5v-37.2c0-4.143-3.357-7.5-7.5-7.5h-20.44v-47.546c0-20.652 16.802-37.454 37.453-37.454h37.494l-2.896 22.206-12.726 7.866c-2.277 1.408-3.632 3.922-3.554 6.599.078 2.676 1.576 5.106 3.932 6.38l8.996 4.861-6.86 52.601-8.915 4.818c-2.486 1.344-4.006 3.97-3.932 6.794.073 2.825 1.729 5.368 4.28 6.58l5.833 2.769-7.012 53.767-5.549 2.634c-2.589 1.229-4.251 3.827-4.283 6.693-.031 2.866 1.574 5.499 4.136 6.785l3.374 1.693-8.132 62.354h-13.7v-95.7c0-4.143-3.357-7.5-7.5-7.5s-7.5 3.357-7.5 7.5v95.7z"/><path d="m144.029 321.216c3.164 2.687 7.895 2.29 10.572-.859l21.15-24.895c1.893-2.229 2.318-5.353 1.091-8.005-1.228-2.653-3.884-4.352-6.807-4.352h-4.437l10.152-11.949c2.682-3.157 2.297-7.891-.86-10.572-3.156-2.681-7.89-2.296-10.572.859l-20.65 24.306c-1.893 2.229-2.318 5.353-1.091 8.005 1.228 2.653 3.884 4.352 6.807 4.352h4.437l-10.653 12.538c-2.681 3.157-2.296 7.89.861 10.572z"/></g></svg>