<svg xmlns="http://www.w3.org/2000/svg" viewBox="0 0 3095.91 552.6"><defs><style>.cls-1{fill:#fff;}.cls-2{fill:#ffba19;}</style></defs><g id="Layer_2" data-name="Layer 2"><g id="Layer_1-2" data-name="Layer 1"><path class="cls-1" d="M1120.66,8.77h221.9C1449.25,8.77,1472,63.4,1472,101c0,37.11-19.86,57.2-49.94,72.15,36.32,11.34,70.37,37.62,70.37,91.72,0,73.7-70.37,111.82-141.88,111.82H1120.66ZM1245.51,152h65.83c26.11,0,42.57-6.7,42.57-30.4,0-18.55-17-25.25-42.57-25.25h-65.83Zm0,137.07h73.22c26.1,0,48.8-6.7,48.8-35,0-21.64-14.19-33.49-43.7-33.49h-78.32Z"/><path class="cls-1" d="M1882.67,234.48c0,102-60.72,151-184.44,151s-185-48.94-185-151V8.77h124.86V209.23c0,37.62,0,84.51,60.71,84.51,59,0,59-46.89,59-84.51V8.77h124.84Z"/><path class="cls-1" d="M1919.41,8.77H2157.2c70.94,0,132.22,35.56,132.22,105.13,0,38.13-19.28,78.33-60.71,92.24,34.05,11.85,55.05,45.86,59.58,91.72,1.7,18,2.27,61.84,13.62,78.84H2177.06c-6.24-18.54-8.52-37.61-10.21-56.68-3.41-35-6.81-71.63-56.19-71.63h-66.39V376.7H1919.41Zm124.86,160.78h65.26c23.26,0,55-3.61,55-36.59,0-23.18-14.18-36.58-61.86-36.58h-58.45Z"/><path class="cls-1" d="M2569.07,145.85c-2.28-13.4-13.62-54.11-65.27-54.11-58.45,0-77.18,51.53-77.18,101s18.73,101,77.18,101c42,0,58.46-26.8,65.84-61.31h122.57c0,74.19-66.4,153-185,153-131.09,0-205.44-84-205.44-192.73C2301.76,76.79,2382.34,0,2507.2,0c111.23.51,172.52,53.58,183.31,145.83Z"/><polygon class="cls-1" points="2718.17 8.77 2843.02 8.77 2843.02 136.58 2959.94 136.58 2959.94 8.77 3084.77 8.77 3084.77 376.7 2959.94 376.7 2959.94 230.87 2843.02 230.87 2843.02 376.7 2718.17 376.7 2718.17 8.77"/><polygon class="cls-1" points="1167.49 406.46 1186.11 406.46 1255.41 522.21 1255.78 522.21 1255.78 406.46 1272.36 406.46 1272.36 549.21 1253.2 549.21 1184.44 434.64 1184.08 434.64 1184.08 549.21 1167.49 549.21 1167.49 406.46"/><path class="cls-1" d="M1300.8,406.45H1346c40.55,0,63.22,22,63.22,68,0,47.8-19.36,74.78-63.22,74.78H1300.8Zm17.51,126.75h29.12c12,0,44.23-3.6,44.23-56.17,0-34-11.61-54.57-43.87-54.57h-29.48Z"/><path class="cls-1" d="M1535.66,497.62c0,36-19,55-51.79,55-33.92,0-54-17-54-55V406.46h17.5v91.16c0,25.2,13.28,39,36.5,39,22.11,0,34.28-13.79,34.28-39V406.46h17.51Z"/><path class="cls-1" d="M1639.84,448.24c-2-20.39-14.55-29.19-32.62-29.19-14.74,0-29.49,5.8-29.49,24.39,0,17.59,21,20.19,42.2,25.39,21,5.21,42,13.19,42,41.2,0,30.38-27.47,42.57-51.43,42.57-29.49,0-54.37-15.59-54.37-50.38h16.58c0,24,18.44,34.39,38.35,34.39,15.84,0,33.35-5.41,33.35-26,0-19.58-21-23-42-28s-42.21-11.59-42.21-37.79c0-29,23.78-41.77,47.74-41.77,26.92,0,47.36,13.79,48.47,45.17Z"/><polygon class="cls-1" points="1713.06 422.46 1669.19 422.46 1669.19 406.46 1774.43 406.46 1774.43 422.46 1730.58 422.46 1730.58 549.21 1713.06 549.21 1713.06 422.46"/><path class="cls-1" d="M1789,406.46H1851c24.69,0,40,14.59,40,37.39,0,17.19-7,31.39-22.84,36.18v.4c15.28,3.19,18.42,15.39,19.71,29.39,1.11,14,.38,29.58,7.74,39.38H1876c-5-5.8-2.21-21.19-4.78-35.18-1.85-14-5-25.8-21.94-25.8h-42.76v61H1789Zm54,65.77c16.4,0,30.4-4.6,30.4-25.38,0-14-7-24.39-23.39-24.39h-43.5v49.77Z"/><rect class="cls-1" x="1916.07" y="406.46" width="17.51" height="142.75"/><path class="cls-1" d="M1998.85,406.46h19.36l51.42,142.75h-19.35l-14.38-43h-55.66l-14.74,43h-18.07Zm-13.07,83.76h44.6l-21.93-66.57h-.38Z"/><polygon class="cls-1" points="2082.58 406.46 2100.1 406.46 2100.1 533.21 2169.76 533.21 2169.76 549.21 2082.58 549.21 2082.58 406.46"/><path class="cls-1" d="M2312.48,448.24c-2-20.39-14.57-29.19-32.63-29.19-14.75,0-29.5,5.8-29.5,24.39,0,17.59,21,20.19,42.22,25.39,21,5.21,42,13.19,42,41.2,0,30.38-27.48,42.57-51.43,42.57-29.49,0-54.38-15.59-54.38-50.38h16.6c0,24,18.43,34.39,38.33,34.39,15.85,0,33.37-5.41,33.37-26,0-19.58-21-23-42-28s-42.22-11.59-42.22-37.79c0-29,23.77-41.77,47.73-41.77,26.92,0,47.38,13.79,48.48,45.17Z"/><polygon class="cls-1" points="2355.83 406.46 2446.7 406.46 2446.7 422.45 2373.35 422.45 2373.35 467.83 2441.72 467.83 2441.72 483.84 2373.35 483.84 2373.35 533.21 2447.26 533.21 2447.26 549.21 2355.83 549.21 2355.83 406.46"/><path class="cls-1" d="M2468.49,406.46h61.94c24.69,0,40,14.59,40,37.39,0,17.19-7,31.39-22.85,36.18v.4c15.29,3.19,18.43,15.39,19.73,29.39,1.1,14,.37,29.58,7.73,39.38h-19.53c-5-5.8-2.22-21.19-4.79-35.18-1.85-14-5-25.8-21.94-25.8H2486v61h-17.52Zm54,65.77c16.4,0,30.4-4.6,30.4-25.38,0-14-7-24.39-23.39-24.39H2486v49.77Z"/><polygon class="cls-1" points="2643.27 549.2 2623.36 549.2 2576.93 406.45 2595.91 406.45 2633.51 530.21 2633.87 530.21 2671.84 406.45 2690.09 406.45 2643.27 549.2"/><rect class="cls-1" x="2704.88" y="406.46" width="17.51" height="142.75"/><path class="cls-1" d="M2844.42,449.44c-3.69-20.2-18.62-30.39-36.87-30.39-31.33,0-44.6,28-44.6,57.77,0,32.61,13.27,59.79,44.79,59.79,23,0,36.3-17.6,38-41.19h17.51c-3.32,35.59-23.77,57.18-56.94,57.18-40.93,0-60.83-32.79-60.83-74.37,0-41.38,21.75-75.16,62.3-75.16,27.45,0,50.12,16,54.19,46.37Z"/><polygon class="cls-1" points="2885.01 406.46 2975.87 406.46 2975.87 422.45 2902.53 422.45 2902.53 467.83 2970.91 467.83 2970.91 483.84 2902.53 483.84 2902.53 533.21 2976.43 533.21 2976.43 549.21 2885.01 549.21 2885.01 406.46"/><path class="cls-1" d="M3073.79,448.24c-2-20.39-14.57-29.19-32.63-29.19-14.74,0-29.49,5.8-29.49,24.39,0,17.59,21,20.19,42.21,25.39,21,5.21,42,13.19,42,41.2,0,30.38-27.47,42.57-51.42,42.57-29.5,0-54.39-15.59-54.39-50.38h16.6c0,24,18.44,34.39,38.33,34.39,15.85,0,33.37-5.41,33.37-26,0-19.58-21-23-42-28s-42.21-11.59-42.21-37.79c0-29,23.76-41.77,47.73-41.77,26.91,0,47.37,13.79,48.48,45.17Z"/><rect class="cls-1" x="1120.66" y="406.46" width="17.51" height="142.75"/><path class="cls-2" d="M363.68,203.7q0-30-42-29.95H290.47v60.71h30.72q22,0,32.26-7.1t10.23-23.66"/><polygon class="cls-2" points="503.98 389.22 503.98 389.2 340.58 552.6 466.04 552.6 629.42 389.22 503.98 389.22"/><path class="cls-2" d="M290.47,342.4h33.27q45.58,0,45.58-34.13,0-32.92-45.07-32.94H290.47Z"/><path class="cls-2" d="M789.45,0H0V349.9L162.62,187.27h-.16V128.51H369.31q44.55,0,69.89,18.05t25.35,48.21q0,25-17.92,40.28t-52.22,18.86v2.37q75.76,4,75.77,60.32,0,72.63-105,72.62H162.46L0,551.68v.92H321.47L504,370.08v-41.2H532V187.27H504V128.51H648.92v58.76h-28V328.88h28v60.34h-.39L485.17,552.6h74.08L722.63,389.22H682.71V299.53H746.6v2.39q0,45.65,44.33,45.64,18,0,28-7.55t10-19a20.09,20.09,0,0,0-2.4-10.13,23.32,23.32,0,0,0-7.38-7.54,61.47,61.47,0,0,0-12.19-6.15c-4.79-1.86-10.38-4-16.76-6.35q-28.77-10.72-47.93-17.26t-27.15-12.11Q697.48,250,690.5,236.25t-7-35.52q0-36.1,23.77-56.94t68.47-20.85q46.34,0,63.9,29.23V128.76H896v80.7H837.26v-2.78q0-38.48-44.51-38.49-16.69,0-26,6.93a21.85,21.85,0,0,0-9.33,18.43,17.55,17.55,0,0,0,3.38,11.09c2.26,2.89,5.71,5.54,10.36,7.91a108.8,108.8,0,0,0,17.11,6.74q10.17,3.17,23.31,7.53,21.5,7.13,36,12.67t22.1,10.3q18.72,12.27,26.69,26.74t8,37q0,37.64-24.71,59.41t-70.14,21.79q-23.13,0-39.47-6.74t-27.89-22.62v23.81h-.39L578.38,552.6H789.45c152,0,276.3-124.34,276.3-276.3S941.42,0,789.45,0"/><polygon class="cls-2" points="162.46 328.87 193.18 328.87 193.18 187.28 181.75 187.28 0 369.02 0 532.57 162.46 370.11 162.46 328.87"/></g></g></svg>