<svg id="svg14514" height="512" viewBox="0 0 16.933333 16.933334" width="512" xmlns="http://www.w3.org/2000/svg" xmlns:svg="http://www.w3.org/2000/svg"><g id="layer1" transform="translate(0 -280.067)"><path id="path12703" d="m11.11458 291.43856v-1.84743c-.000264-.0335-.007-.0667-.01963-.0977l-1.058334-2.64635c-.057-.14241-.1218348-.29766-.2387438-.4377-.09954-.11923-.246147-.2309-.436666-.24857l.150379-.45423c.0933-.28.200975-.51038.6139158-.75086l2.405538-1.51877c.141697-.0894.152486-.2558.07965-.36658-.07231-.10998-.227247-.16501-.361282-.0804l-2.3941698 1.51103c-.517789.30133-.734094.70263-.845944 1.03818l-.204121.61236h-2.080493l.345197-.96841c.169402-.4755.508222-.96606.972815-1.16919l4.7777498-1.95467c.0056.0186.0098.0372.01654.0558l2.211234 6.11022-2.294951 3.05925c-.131249.17422-.0071.42342.210841.42375h1.58799c1.021469 0 1.851049-.83009 1.851049-1.85157v-.52917c0-.35287-.529167-.35287-.529167 0v.52917c0 .73749-.584422 1.32242-1.321882 1.32242h-1.056784l1.982309-2.64532.66249-.00053c.165814-.00026.290486-.15131.259416-.31419l-1.263488-6.72259c-.109752-.5837-.68571-.98755-1.329634-.88883-.553384.0848-.886892.47992-.992188.88264l-4.9800538 2.03709c-.658577.28745-1.05851.9055-1.262451 1.47794l-.408244 1.14618h-.07648c-.479778 0-.695365.37852-.788072.74724l-.477493 1.89911h-3.4979803c-.43516 0-.794782.35808-.794782.79324v1.85363c0 .43516.359622.79272.794782.79272h.7927179v.55087c-.895823.12945-1.5880179.89937-1.5880179 1.83038 0 1.02147.832164 1.85104 1.8536329 1.85104h8.2015712c1.021479 0 1.851049-.82957 1.851049-1.85104 0-1.02148-.82957-1.85209-1.851049-1.85209h-.264068l.000264-.52916c.435464 0 .804828-.35685.795046-.79892zm3.500036-9.84436 1.205611 6.40995-.288872.00053-2.196764-6.06991c-.117182-.32385.120462-.72658.541827-.79919.360465-.0621.682048.15999.738198.45862zm-.591696.0599c-.146119 0-.264583.11847-.264583.26459s.118464.26458.264583.26458c.146129 0 .264583-.11845.264583-.26458s-.118454-.26459-.264583-.26459zm-3.703651 10.05417h-8.9958332c-.151159 0-.265615-.11239-.265615-.26355v-1.85363c0-.15115.114456-.26355.265615-.26355h3.7052014c.12183.00022.228071-.0828.25735-.20102l.531492-2.13372c.04985-.2001.119533-.31161.269491-.31161h3.176035c.0693 0 .08146.0117.128672.0682.0472.0565.102603.1653.154514.29508l1.0386958 2.59725v1.80584c.003.14696-.114488.2607-.265618.2607zm-3.7031318-4.49792c-.120057 0-.225073.0808-.255799.19689l-.423746 1.58595c-.04606.16858.08105.33471.255799.33435h1.21698v.79272c.000156.0523.0158.10335.04496.14675l.529166.79479c.04929.0736.132112.11759.220657.1173h1.58802c.145311-.00052.2629658-.11823.2635478-.26354v-1.05885c-.000216-.0356-.0076-.0707-.02169-.10335l-1.0020068-2.38125c-.04138-.0981-.137477-.1618-.243914-.16175zm.203089.52917h.590145v1.05833h-.873334zm1.119312 0h.673859l.914157 2.16989v.74053h-1.181841l-.406175-.60974v-.97824zm-6.0900684 2.11305c-.146124.002-.263192.12156-.261483.26769v.7953c-.0081.36078.537266.36078.529167 0v-.7953c.0019-.14856-.119134-.26942-.267684-.26769zm1.058849 0c-.1461241.002-.263192.12156-.261483.26769v.7953c-.0078.36047.536951.36047.529167 0v-.7953c.00191-.14856-.119134-.26942-.267684-.26769zm1.0567831 0c-.145516.003-.2616469.12216-.2599322.26769v.7953c.0078.34494.5214225.34494.5291675 0v-.7953c.0019-.14917-.120079-.27031-.2692353-.26769zm-1.3182661 2.38487h7.1442674v.52916h-1.324468c-.35312 0-.35312.52969 0 .52969h2.1177018c.73747 0 1.321882.58493 1.321882 1.3224 0 .73746-.584412 1.32188-1.321882 1.32188h-8.2015682c-.73746 0-1.323948-.58442-1.323948-1.32188 0-.73747.586488-1.3224 1.323948-1.3224h5.0276024c.353121 0 .353121-.52969 0-.52969h-4.7635354zm.2656179 1.58801c-.4352309 0-.7952999.358-.7952999.79324s.360058.79477.7952999.79478c.4352512 0 .792716-.35954.792716-.79478-.0000108-.43524-.3574759-.79324-.792716-.79324zm2.3807325 0c-.43524 0-.795301.358-.795301.79324s.360051.79478.795301.79478c.435239-.00001.792718-.35954.792718-.79478-.000011-.43524-.357479-.79324-.792718-.79324zm2.380734 0c-.43524 0-.792708.358-.792716.79324 0 .43524.357466.79478.792716.79478s.792715-.35954.792715-.79478c-.000007-.43524-.357475-.79324-.792715-.79324zm2.3807338 0c-.4352398 0-.7927068.358-.7927178.79324 0 .43524.357468.79478.7927178.79478.43525 0 .795301-.35954.795301-.79478s-.360061-.79324-.795301-.79324zm-7.1422003.52917c.1492602 0 .2635491.11481.2635491.26407s-.1142889.26562-.2635491.26562c-.1492618 0-.2656179-.11637-.2656179-.26562 0-.14926.1163561-.26406.2656179-.26407zm2.3807325 0c.149262.00001.263551.11481.263551.26407 0 .14925-.114289.26562-.263551.26562-.14926 0-.265626-.11636-.265615-.26562 0-.14926.116355-.26407.265615-.26407zm2.380734 0c.149259 0 .263549.11481.263549.26407s-.11429.26562-.263549.26562-.263549-.11636-.263549-.26562.11429-.26407.263549-.26407zm2.3807338 0c.149259 0 .265615.11481.265615.26407.000011.14926-.116356.26562-.265615.26562-.1492618 0-.2635508-.11636-.2635508-.26562s.114289-.26407.2635508-.26407z" font-variant-ligatures="normal" font-variant-position="normal" font-variant-caps="normal" font-variant-numeric="normal" font-variant-alternates="normal" font-feature-settings="normal" text-indent="0" text-align="start" text-decoration-line="none" text-decoration-style="solid" text-decoration-color="rgb(0,0,0)" text-transform="none" text-orientation="mixed" white-space="normal" shape-padding="0" isolation="auto" mix-blend-mode="normal" solid-color="rgb(0,0,0)" solid-opacity="1" vector-effect="none"/></g></svg>