<svg id="Capa_1" enable-background="new 0 0 284.152 284.152" height="512" viewBox="0 0 284.152 284.152" width="512" xmlns="http://www.w3.org/2000/svg"><path d="m181.597 135.102h-18.082c-4.391 0-7.75 3.358-7.75 7.75v3.616h-25.832c-2.067 0-4.133.775-5.425 2.325l-9.041 9.041h-43.914c-3.358 0-6.458 2.325-7.491 5.683l-9.041 31.773c-.775 2.325-.258 4.908 1.292 6.716 1.55 2.067 3.875 3.1 6.2 3.1h1.033l-15.758 55.539c-1.55 5.683-.517 11.624 3.1 16.274 3.616 4.65 9.041 7.233 14.724 7.233 8.008 0 15.241-5.166 17.566-12.916l29.19-66.388h5.166v37.457c0 4.391 3.358 7.75 7.75 7.75 4.391 0 7.75-3.358 7.75-7.75v-37.457h22.732v3.617c0 4.391 3.358 7.75 7.75 7.75h18.082c6.716 0 12.141-5.425 12.141-12.399v-56.314c.258-6.976-5.425-12.4-12.142-12.4zm-112.627 130.193c-.258.258-.258.775-.258 1.033-.258 1.292-1.55 2.325-2.842 2.325s-2.067-.775-2.325-1.292-.775-1.55-.517-2.842l13.949-49.339h14.208zm3.874-75.946 4.65-16.274h41.331c2.067 0 4.133-.775 5.425-2.325l9.041-9.041h22.732v27.382h-83.179zm105.654 11.366h-6.975v-3.617-42.881-3.616h6.975z"/><path d="m52.437 187.541v-19.891c0-4.391-3.358-7.75-7.75-7.75s-7.75 3.358-7.75 7.75v19.891c0 4.391 3.358 7.75 7.75 7.75s7.75-3.359 7.75-7.75z"/><path d="m60.703 110.82c7.233 19.632 25.832 33.065 46.756 33.065 5.683 0 11.624-1.033 17.049-3.1h.258c25.832-9.558 39.006-38.231 29.707-64.064l-21.441-59.414 5.941-2.067c4.133-1.55 6.2-5.941 4.65-10.075-1.55-4.133-5.941-6.2-10.075-4.65l-13.174 4.908-39.522 14.468-52.697 19.374c-4.133 1.55-6.2 5.941-4.65 10.075 1.033 3.1 4.133 5.166 7.233 5.166.775 0 1.808-.258 2.583-.517l5.941-2.067zm79.046-28.932c6.458 17.824-2.583 37.715-20.407 44.431h-.258c-3.875 1.292-7.75 2.067-11.624 2.067-14.208 0-27.124-9.041-32.032-22.732l-21.441-59.415 9.041-3.358 55.539-20.407z"/><path d="m223.187 153.442c.775 0 1.808-.258 2.583-.517l22.991-8.008c4.133-1.292 6.2-5.941 4.65-9.816s-5.941-6.2-9.816-4.65l-22.991 8.008c-4.133 1.292-6.2 5.941-4.65 9.816 1.033 3.101 4.133 5.167 7.233 5.167z"/><path d="m253.411 167.908h-30.224c-4.391 0-7.75 3.358-7.75 7.75 0 4.391 3.358 7.75 7.75 7.75h30.224c4.391 0 7.75-3.358 7.75-7.75-.001-4.391-3.359-7.75-7.75-7.75z"/><path d="m248.761 206.398-22.991-8.008c-4.133-1.292-8.525.775-9.816 4.65-1.292 4.133.775 8.525 4.65 9.816l22.991 8.008c.775.258 1.808.517 2.583.517 3.1 0 6.2-2.067 7.233-5.166 1.55-4.134-.775-8.525-4.65-9.817z"/></svg>