<svg id="Layer_1" height="512" viewBox="0 0 64 64" width="512" xmlns="http://www.w3.org/2000/svg"><g style="fill:none;stroke:#231f20;stroke-linecap:round;stroke-linejoin:round;stroke-miterlimit:10;stroke-width:2"><path d="m4.2 42v-.7c0-2.4 1.3-4.5 3.3-5.9 1.4-.9 2.3-2.4 2.5-4.2l.9-4.5"/><path d="m41.5 29.1v12.9"/><path d="m27.1 13.1c.1 0 .2 0 .3.1l12.6 5.5c2.8 1.2 4.1 4.2 3.1 6.7l-4.8 11.3c-1.1 2.5-4.2 3.5-6.9 2.3l-12.6-5.5c-.1 0-.2-.1-.3-.2l-11-9.6c-1.1-.9-1.4-2.4-.9-3.7l2.9-6.7c.6-1.3 1.9-2.1 3.3-1.9z"/><path d="m34.5 35.2c-.1.3-.5.4-.9.4-.3 0-.5-.1-.8-.2l-12.1-5.3"/><path d="m21.2 42h-3.4"/><path d="m47.9 47.4h-15.2"/><path d="m27.5 42h17.4c1.1 0 2-.9 2-2v-11.8c0-1.7 1.3-3 3-3h10.1c1.7 0 3 1.3 3 3v16.2c0 1.5-1.3 2.7-2.8 2.7l-2 .1"/><path d="m27.5 42h-16"/><path d="m6.4 47.4h-3.6c-1 0-1.8-.8-1.8-1.8v-1.8c0-1 .8-1.8 1.8-1.8h8.8"/><ellipse cx="11.5" cy="47.3" rx="5.2" ry="5.2"/><ellipse cx="27.5" cy="47.3" rx="5.2" ry="5.2"/><ellipse cx="53.1" cy="47.3" rx="5.2" ry="5.2"/><path d="m63 29h-6.3c-1.1 0-2 .9-2 2v3.5c0 1.1.9 2 2 2h6.3"/></g></svg>