<?xml version="1.0" encoding="UTF-8"?>
<svg xmlns="http://www.w3.org/2000/svg" id="Layer_3" data-name="Layer 3" viewBox="0 0 64 64" width="512" height="512"><path d="M57.948,42.684l-.285-.855a4.133,4.133,0,0,0-5.77-2.393L51,39.881l-.475-.237a6.252,6.252,0,0,0-5.211-.1l-1.548-.387a5.463,5.463,0,0,0-4.535.916L36.667,42H32.236L30.8,41.281a12.135,12.135,0,0,0-12.158.757l-3.144,2.1L14.16,44.8,12.871,42.51a1,1,0,0,0-1.242-.439l-5,2a1,1,0,0,0-.513,1.4l9,17a1,1,0,0,0,.615.495,1,1,0,0,0,.784-.106l5-3a1,1,0,0,0,.356-1.347l-1.359-2.416a13.789,13.789,0,0,1,8.7-.912l1.819.4a17.386,17.386,0,0,0,13.8-2.769l12.751-9A1,1,0,0,0,57.948,42.684Zm-8.774-1.438L44.633,45.14a5.007,5.007,0,0,0-1.23-1.782l1.82-1.456A4.21,4.21,0,0,1,49.174,41.246Zm-8.743.431a3.418,3.418,0,0,1,2.628-.6l-1.5,1.2A4.934,4.934,0,0,0,40,42h0ZM16.391,60.6,8.4,45.515l3.154-1.261,8.093,14.389Zm27.281-9.416a15.392,15.392,0,0,1-12.211,2.45l-1.819-.405a15.785,15.785,0,0,0-10.111,1.12l-4.389-7.8,1.3-.652a1.05,1.05,0,0,0,.108-.063l3.2-2.13A10.135,10.135,0,0,1,29.9,43.07l1.649.825A1,1,0,0,0,32,44h8a3.006,3.006,0,0,1,2.829,2H34v2H44a.981.981,0,0,0,.643-.25l.008.009,6.908-5.922,1.226-.612a2.137,2.137,0,0,1,2.982,1.236l.049.15Z"/><path d="M30.183,31.544A.983.983,0,0,0,31,32h3a6.006,6.006,0,0,0,6-6V23a1,1,0,0,0-1-1H36a5.953,5.953,0,0,0-3.027.828A9.008,9.008,0,0,0,25,18a1,1,0,0,0-1,1v4A8.992,8.992,0,0,0,30.183,31.544ZM38,24v2a4,4,0,0,1-4,4H32V28a4,4,0,0,1,4-4ZM26,20.072a7,7,0,0,1,5.386,4.1A5.973,5.973,0,0,0,30,28v1.316A6.991,6.991,0,0,1,26,23Z"/><path d="M10,28h8a3.893,3.893,0,0,0,.573-.063A14,14,0,0,0,46,24a11.951,11.951,0,0,0-.851-4H52a4,4,0,0,0,.878-7.9A5,5,0,1,0,43.1,10H43a4.961,4.961,0,0,0-2.863.913A114.329,114.329,0,0,0,32.752,1.34a1.035,1.035,0,0,0-1.5,0c-.457.522-9.6,11.013-12.426,18.759-.075-.016-.148-.043-.224-.054A5,5,0,0,0,9,22c0,.057,0,.113,0,.17A3,3,0,0,0,10,28ZM43,12a3.188,3.188,0,0,1,.767.1A1,1,0,0,0,45,10.99a3,3,0,1,1,5.572,1.555,1,1,0,0,0,1.064,1.494A2,2,0,1,1,52,18H43a3,3,0,0,1,0-6ZM32,3.541a110.849,110.849,0,0,1,6.738,8.88A4.949,4.949,0,0,0,38,15,5.007,5.007,0,0,0,43,20,11.191,11.191,0,0,1,44,24a12,12,0,0,1-24,0C20,18.242,29.264,6.8,32,3.541ZM9.993,24A1,1,0,0,0,11.1,22.767,3.139,3.139,0,0,1,11,22a3,3,0,0,1,5.9-.744A1,1,0,0,0,18.01,22a1.929,1.929,0,0,1,.239.031A9.117,9.117,0,0,0,18,24a13.948,13.948,0,0,0,.157,1.983c-.053,0-.1.017-.157.017H10a1,1,0,0,1-.007-2Z"/></svg>
