<svg id="Capa_1" enable-background="new 0 0 593.84 593.84" height="512" viewBox="0 0 593.84 593.84" width="512" xmlns="http://www.w3.org/2000/svg"><g><g><circle cx="277.764" cy="517.216" r="9.578"/><circle cx="545.95" cy="517.216" r="9.578"/><path d="m517.216 440.591h-19.156v-19.156h57.468c10.565 0 19.156-8.592 19.156-19.156v-76.625c0-10.565-8.591-19.156-19.156-19.156h-19.156v-19.156c0-10.565-8.591-19.156-19.156-19.156h-57.468c0-10.565-8.592-19.156-19.156-19.156v-38.312c0-21.129-17.183-38.312-38.312-38.312s-38.312 17.183-38.312 38.312h-60.409c-5.929-15.9-13.687-30.889-23.189-44.576l4.061-12.174c1.925-5.785 2.912-11.819 2.912-17.949 0-22.413-13.227-42.766-33.705-51.865l-138.7-61.644v-3.352c-.001-10.566-8.593-19.158-19.157-19.158-52.814 0-95.781 42.967-95.781 95.781v13.735 43.733c0 10.565 8.592 19.156 19.156 19.156v153.718c-10.909 2.146-19.156 11.762-19.156 23.294 0 5.373 1.839 10.641 5.201 14.846l19.865 24.836c-16.149 21.005-25.066 46.78-25.066 73.388 0 25.277 7.768 49.509 22.451 70.073l3.573 4.99c16.599 23.256 43.571 37.134 72.132 37.134 19.06 0 37.958-6.293 53.187-17.739l13.381-10.038c4.808-3.582 7.682-9.319 7.682-15.325v-14.367c0-10.565-8.592-19.156-19.156-19.156h-11.216l-27.096-144.562v-197.71c30.813 14.319 57.622 35.975 78.128 63.311l38.006 50.678-19.98 119.908c-.239 1.475-.374 2.969-.374 4.483 0 15.038 12.231 27.269 27.269 27.269h49.356v19.156h-19.156c-42.249 0-76.625 34.376-76.625 76.625s34.376 76.625 76.625 76.625h249.03c42.249 0 76.625-34.376 76.625-76.625s-34.378-76.626-76.626-76.626zm-210.718 76.625c0 15.842-12.892 28.734-28.734 28.734s-28.734-12.892-28.734-28.734 12.892-28.734 28.734-28.734c15.842-.001 28.734 12.892 28.734 28.734zm191.562 0h-172.406c0-6.82-1.475-13.275-4.061-19.156h176.467zm-128.605 19.156c-2.835 5.737-8.524 9.578-15.066 9.578s-12.231-3.841-15.066-9.578zm57.468 0c-2.835 5.737-8.524 9.578-15.066 9.578s-12.231-3.841-15.066-9.578zm57.469 0c-2.835 5.737-8.524 9.578-15.066 9.578s-12.231-3.841-15.066-9.578zm39.547-134.093 31.588-27.077v27.077zm31.589-52.287-61.003 52.287h-92.246v-76.625h153.249zm-172.405-100.962h-129.18l3.19-19.156h125.99zm0 114.937h-57.468v-38.312h57.468zm-132.369-95.781h55.744v76.625h-68.512zm74.9 114.937h57.468v19.156h-57.468zm57.469-76.625h-57.468v-38.312h57.468zm57.468-38.312v38.312h-38.312v-38.312zm76.625 19.156v19.156h-57.468v-19.156zm-114.937-95.781c10.565 0 19.156 8.592 19.156 19.156v38.312h-19.156v-19.156c0-10.565-8.592-19.156-19.156-19.156 0-10.564 8.591-19.156 19.156-19.156zm-134.093-55.543c0 4.052-.642 8.046-1.925 11.877l-.086.249c-21.292-24.328-48.168-43.465-78.349-55.543l5.68-14.204 52.354 23.265c13.562 6.024 22.326 19.51 22.326 34.356zm-92.199-65.408-6.264 15.66c-9.741-2.864-19.731-5.057-29.941-6.417l-21.79-2.912c-1.044-.134-2.031-.019-3.055-.067v-33.399zm-156.831 25.171c0-42.249 34.376-76.625 76.625-76.625v62.028c-11.293 6.226-19.156 18.198-19.156 31.962v2.27c0 13.448 7.538 25.755 19.156 32.077v197.317h-19.578l-8.936-196.456c-.297-6.417-3.764-12.222-9.281-15.545l-38.829-23.294v-13.734zm0 57.468v-21.397l28.974 17.384.182 4.013zm30.027 19.156 6.963 153.249h-17.834v-153.249zm-30.027 177.003c0-2.529 2.069-4.597 4.597-4.597h33.265l.287 6.226-19.731 23.016-17.413-21.761c-.65-.815-1.005-1.84-1.005-2.884zm22.461 177.022-3.573-5c-12.356-17.298-18.888-37.68-18.888-58.943 0-24.185 8.668-47.632 24.414-66.002l25.487-29.73 32.776 188.468c-1.226.077-2.442.306-3.678.306-22.392-.001-43.531-10.882-56.538-29.099zm100.426-9.214h11.206v14.367l-13.4 10.047c-5.814 4.368-12.317 7.729-19.175 10.086l-32.661-187.749h9.396l25.803 137.627c1.705 9.051 9.617 15.622 18.831 15.622zm66.347-309.602c-25.89-34.519-60.936-60.782-101.336-75.935-6.743-2.529-11.273-9.061-11.273-16.254v-2.27c0-10.344 9.195-18.601 19.673-17.221l21.8 2.912c64.872 8.649 120.779 51.98 145.836 111.872h-25.957c-9.387 0-17.336 6.724-18.898 16.015l-2.826 16.934zm21.484 186.552c0-.45.038-.9.115-1.341l4.808-28.859h71.701v38.312h-68.512c-4.473.001-8.112-3.639-8.112-8.112zm76.624 27.269h172.405v19.156h-172.405zm-95.781 95.781c0-31.694 25.775-57.468 57.468-57.468h229.875v19.156h-191.859c-7.979-5.938-17.758-9.578-28.437-9.578-26.407 0-47.89 21.484-47.89 47.89s21.484 47.89 47.89 47.89c18.275 0 33.993-10.402 42.067-25.487l.259.766c4.933 14.789 18.716 24.721 34.299 24.721 11.513 0 22.03-5.45 28.734-14.252 6.705 8.802 17.221 14.252 28.734 14.252s22.03-5.45 28.734-14.252c6.705 8.802 17.221 14.252 28.734 14.252s22.03-5.45 28.734-14.252v23.83h-229.873c-31.694 0-57.469-25.775-57.469-57.468zm306.499 57.468v-114.937c31.694 0 57.468 25.775 57.468 57.468s-25.775 57.469-57.468 57.469z"/></g></g></svg>