<svg id="&#x421;&#x43B;&#x43E;&#x439;_1" enable-background="new 0 0 160 160" viewBox="0 0 160 160" xmlns="http://www.w3.org/2000/svg"><g><path d="m126.505 123.103c-6.404 0-12.577-2.59-16.935-7.105-3.077-3.188-7.094-5.21-11.309-5.696-5.196-.597-8.043.086-11.058.81-2.823.677-5.742 1.377-10.37.991-10.826-.902-14.269-8.132-14.577-11.828-.092-1.101.727-2.067 1.827-2.159.15-.013.298-.004.441.016.068-.008.135-.022.205-.022 5.319-.057 10.234-2.145 13.84-5.88 4.369-4.525 10.541-7.114 16.943-7.114h.001c6.403.001 12.575 2.59 16.933 7.105 3.662 3.793 8.654 5.883 14.057 5.883 5.138 0 9.891-1.909 13.495-5.358v-14.838c-3.903 2.697-8.631 4.194-13.495 4.194-6.404 0-12.576-2.59-16.935-7.105-3.662-3.793-8.653-5.882-14.056-5.883h-.001c-5.402 0-10.393 2.089-14.054 5.881-4.369 4.525-10.54 7.114-16.941 7.114 0 0-.001 0-.002 0-6.401 0-12.572-2.588-16.93-7.1-3.683-3.813-8.674-5.901-14.075-5.9-5.146 0-9.905 1.915-13.511 5.374v17.599c16.056.03 22.227 6.237 26.815 16.161 7.335 15.866 16.396 21.244 28.513 16.923 15.713-5.602 28.548-3.878 37.118 4.985 3.715 3.842 8.708 5.958 14.058 5.958 5.084 0 9.846-1.911 13.495-5.399v-11.801c-3.9 2.696-8.628 4.194-13.492 4.194z"/><path d="m140 55.109v-7h-22c-1.104 0-2-.896-2-2 0-.271.061-5.542 4.352-9.933-4.201-.402-5.779 1.181-5.861 1.266-.471.558-1.188.793-1.904.65-.716-.144-1.277-.688-1.495-1.385-.105-.337-2.157-7.057-.279-13.708-6.053 2.562-5.867 9.127-5.816 9.981.045.761-.345 1.485-1.008 1.862s-1.481.348-2.112-.08c-.168-.112-3.394-2.2-7.637-1.524 5.836 3.393 6.761 8.141 6.761 12.87 0 1.104-.896 2-2 2h-46.001c-1.104 0-2-.896-2-2 0-4.635 2.023-10.964 5.841-15.757-4.432.98-8.662 3.907-9.918 8.307-.227.793-.917 1.365-1.738 1.441-.821.079-1.605-.359-1.974-1.097-.699-1.398-2.978-3.131-5.982-3.737-1.238-.25-2.808-.354-4.504.051 4.087 1.79 6.275 5.485 6.275 10.793 0 1.104-.896 2-2 2h-17v7z"/><path d="m30 104.109c0-1.654-1.346-3-3-3s-3 1.346-3 3 1.346 3 3 3 3-1.345 3-3z"/><path d="m40 121.109c0-1.654-1.346-3-3-3s-3 1.346-3 3 1.346 3 3 3 3-1.345 3-3z"/><path d="m127 68.109c0-1.654-1.346-3-3-3s-3 1.346-3 3 1.346 3 3 3 3-1.345 3-3z"/><path d="m67 71.109c0-1.654-1.346-3-3-3s-3 1.346-3 3 1.346 3 3 3 3-1.345 3-3z"/><path d="m86 62.109c0-1.654-1.346-3-3-3s-3 1.346-3 3 1.346 3 3 3 3-1.345 3-3z"/><path d="m46 61.109c0-1.654-1.346-3-3-3s-3 1.346-3 3 1.346 3 3 3 3-1.345 3-3z"/><path d="m96 134.109c0-1.654-1.346-3-3-3s-3 1.346-3 3 1.346 3 3 3 3-1.345 3-3z"/><path d="m82.194 105.303c2.457-3.197-1.19-6.844-4.387-4.387-2.458 3.197 1.189 6.844 4.387 4.387z"/><path d="m124.194 113.303c2.457-3.197-1.19-6.844-4.387-4.387-2.458 3.197 1.189 6.844 4.387 4.387z"/><path d="m101.194 99.303c2.457-3.197-1.19-6.844-4.387-4.387-2.458 3.197 1.189 6.844 4.387 4.387z"/><path d="m28 134.109c0-1.654-1.346-3-3-3s-3 1.346-3 3 1.346 3 3 3 3-1.345 3-3z"/><path d="m59 135.109c0-1.654-1.346-3-3-3s-3 1.346-3 3 1.346 3 3 3 3-1.345 3-3z"/></g></svg>