<svg id="&#x421;&#x43B;&#x43E;&#x439;_1" enable-background="new 0 0 160 160" viewBox="0 0 160 160" xmlns="http://www.w3.org/2000/svg"><g><path d="m113 60.965c0-15.754-15.641-33.927-20-38.318-4.359 4.391-20 22.564-20 38.318 0 11.047 8.972 20.035 20 20.035s20-8.988 20-20.035zm-35-.001c0-4.457 1.53-9.684 4.547-15.534.506-.982 1.713-1.367 2.694-.861.982.507 1.367 1.713.861 2.694-2.722 5.279-4.102 9.889-4.102 13.701 0 6.085 4.934 11.036 11 11.036 1.104 0 2 .896 2 2s-.896 2-2 2c-8.271 0-15-6.745-15-15.036z"/><path d="m40 130c-1.104 0-2-.896-2-2s.896-2 2-2h5v-6h-11c-1.104 0-2-.896-2-2s.896-2 2-2h11v-6h-5c-1.104 0-2-.896-2-2s.896-2 2-2h5v-6h-11c-1.104 0-2-.896-2-2s.896-2 2-2h11v-6h-5c-1.104 0-2-.896-2-2s.896-2 2-2h5v-6h-11c-1.104 0-2-.896-2-2s.896-2 2-2h11v-6h-5c-1.104 0-2-.896-2-2s.896-2 2-2h5v-6h-11c-1.104 0-2-.896-2-2s.896-2 2-2h11v-6h-5c-1.104 0-2-.896-2-2s.896-2 2-2h5v-6h-11c-1.104 0-2-.896-2-2s.896-2 2-2h11v-6h-5c-1.104 0-2-.896-2-2s.896-2 2-2h5v-6h-27v116h27v-6z"/><path d="m53.328 135.942c2.776 2.706 6.508 4.058 10.242 4.058 3.739 0 7.481-1.357 10.266-4.072 3.972-3.872 10.941-3.873 14.926.011 5.556 5.416 14.944 5.415 20.505-.008 3.973-3.874 10.943-3.874 14.917.001 4.226 4.121 11.079 5.168 16.666 2.544 1-.469 1.43-1.661.96-2.66-.47-1-1.661-1.43-2.661-.96-4.11 1.929-9.116 1.194-12.173-1.788-5.556-5.418-14.945-5.419-20.508.005-3.972 3.873-10.941 3.873-14.926-.011-5.556-5.416-14.943-5.415-20.51.013-3.971 3.872-10.94 3.873-14.935-.019-1.92-1.872-4.396-3.15-7.098-3.718v4.116c1.64.479 3.132 1.322 4.329 2.488z"/><path d="m53.328 116.942c5.556 5.414 14.942 5.413 20.508-.014 3.972-3.872 10.941-3.873 14.926.011 5.556 5.416 14.944 5.415 20.505-.008 3.973-3.874 10.943-3.874 14.917.001 2.821 2.752 6.685 4.219 10.538 4.219 2.103 0 4.203-.438 6.128-1.341 1-.47 1.43-1.661.96-2.66-.47-1-1.661-1.431-2.661-.961-3.974 1.866-8.98.994-12.173-2.121-5.556-5.418-14.945-5.419-20.508.005-3.972 3.873-10.942 3.873-14.926-.011-5.556-5.416-14.944-5.415-20.51.013-3.971 3.872-10.94 3.873-14.935-.019-1.92-1.872-4.396-3.15-7.098-3.718v4.116c1.64.479 3.132 1.322 4.329 2.488z"/><path d="m139.15 97.189c-3.975 1.866-8.98.994-12.174-2.121-5.556-5.418-14.945-5.419-20.508.005-3.972 3.873-10.941 3.874-14.921-.006l-2.786 2.871c5.556 5.416 14.944 5.415 20.505-.008 3.973-3.874 10.943-3.874 14.917.001 2.821 2.752 6.685 4.219 10.538 4.219 2.103 0 4.203-.438 6.127-1.341 1-.47 1.43-1.661.961-2.66-.468-.999-1.659-1.429-2.659-.96z"/><path d="m66.914 87.085c-.781-.781-2.047-.781-2.828 0l-9.5 9.5c-.781.781-.781 2.047 0 2.828l9.5 9.5c.391.391.902.586 1.414.586s1.023-.195 1.414-.586c.781-.781.781-2.047 0-2.828l-6.086-6.085h20.172c1.104 0 2-.896 2-2s-.896-2-2-2h-20.172l6.085-6.086c.782-.782.782-2.047.001-2.829z"/></g></svg>