<svg clip-rule="evenodd" fill-rule="evenodd" height="173.397mm" image-rendering="optimizeQuality" shape-rendering="geometricPrecision" text-rendering="geometricPrecision" viewBox="0 0 173.397 173.397" width="173.397mm" xmlns="http://www.w3.org/2000/svg"><g id="Layer_x0020_1"><g id="_319487160"><path id="_319487256" d="m11.8641 144.307c-1.6428 0-2.9825-1.3364-2.9825-2.9822l.0001-5.1266c0-1.6456 1.3396-2.9852 2.9823-2.9852h105.011c.9835 0 1.7817.7982 1.7817 1.782.0003.9835-.7982 1.782-1.782 1.782h-104.429v3.966h103.9c.9836 0 1.7817.7984 1.7817 1.7822.0003.9836-.7982 1.782-1.782 1.782l-104.482-.0002z"/><path id="_319487832" d="m134.732 98.0247h-69.2285c-.987 0-1.7822-.7976-1.7822-1.7818.0002-.9841.7951-1.782 1.782-1.782l69.2287-.0002c.9839 0 1.782.7981 1.782 1.7822s-.7983 1.782-1.782 1.7818z"/><path id="_319487640" d="m65.5035 136.777c-.987 0-1.7822-.7982-1.7822-1.782l.0002-50.971h-44.9831v50.971c0 .9835-.7983 1.782-1.7821 1.782-.9835 0-1.782-.7982-1.782-1.782l.0001-51.3389c0-1.7621 1.4354-3.196 3.1957-3.196l45.7165-.0001c1.7633 0 3.1987 1.4341 3.1987 3.1962l.0002 51.3388c0 .9835-.7984 1.782-1.782 1.782z"/><path id="_319487568" d="m89.6503 54.5353c-.984 0-1.7824-.7973-1.7824-1.7814v-5.0066c-4.0153.0947-6.7691-2.3204-8.0685-3.7774-2.0109.4271-4.1146.2053-6.042-.6557-4.9126-2.2167-7.1033-8.0007-4.8943-12.8969 2.2123-4.9042 7.9973-7.0967 12.8947-4.8865 1.9089.8681 3.465 2.294 4.4828 4.0853 1.1944.0116 2.3636.2692 3.4434.7623 2.2742 1.0233 3.9816 2.9929 4.6901 5.366 1.4356.8526 4.1827 3.0106 4.786 7.2853.0096.0821.0154.1651.0154.2483l.0001 9.4401c0 .9843-.7982 1.7822-1.7821 1.7822-.9835-.0002-1.7819-.7979-1.7819-1.782v-9.3093c-.5659-3.6159-3.4124-4.7938-3.4402-4.8053-.5662-.2268-.9777-.728-1.089-1.3281-.303-1.6138-1.3737-2.9787-2.871-3.6513-.8662-.396-1.8315-.5296-2.7998-.3916-.8105.1153-1.5965-.3366-1.9027-1.0968-.5971-1.4742-1.7696-2.6983-3.2237-3.3585-3.0999-1.3995-6.7691-.0069-8.1737 3.1061-1.4011 3.1052-.0092 6.7744 3.103 8.1792 1.4884.6635 3.1371.7336 4.6407.1943.7765-.2794 1.6427.0124 2.0944.7029.1084.1613 2.8122 4.1178 7.2796 3.0266.5293-.1296 1.092-.0083 1.5221.3298.4301.3376.6806.8545.6806 1.4014l.0004 7.0359c0 .9844-.7986 1.782-1.782 1.7817z"/><path id="_319487352" d="m83.8185 98.0247c-.0557 0-.1148-.0026-.1735-.0081-.9807-.0957-1.6984-.9671-1.6026-1.9466l2.2278-22.8409.9898-10.3216 1.0271-10.33c.0898-.9115.8569-1.6056 1.7726-1.6056l11.2429-.0003c.9189 0 1.6859.6979 1.7756 1.6122l.9904 10.3237 1.0239 10.3186 2.2275 22.8436c.0957.9798-.6221 1.8512-1.5997 1.9469-.9776.0972-1.8532-.6213-1.9491-1.6007l-2.2273-22.8408-1.024-10.3209-.8353-8.7189h-8.0096l-.8663 8.7189-.9902 10.3182-2.2275 22.8433c-.0897.9205-.8663 1.6092-1.7725 1.609z"/><path id="_319487328" d="m100.292 64.8597h-13.2566c-.9868 0-1.7821-.7976-1.7821-1.7817.0001-.9842.7951-1.782 1.782-1.782l13.2567-.0003c.984 0 1.7819.7982 1.7819 1.7823.0001.984-.7981 1.782-1.7819 1.7817z"/><path id="_319487784" d="m101.32 75.1842h-15.2736c-.9871 0-1.7821-.7976-1.7821-1.7818.0002-.9842.795-1.782 1.782-1.782l15.2737-.0002c.984 0 1.782.7981 1.782 1.7822s-.7982 1.782-1.782 1.7818z"/><path id="_319487496" d="m95.2715 136.777c-.9838 0-1.7822-.7982-1.7822-1.782l.0003-17.1347h-8.8793v17.1347c0 .9835-.7982 1.782-1.782 1.782-.9868 0-1.782-.7982-1.782-1.782v-18.0323c0-1.4701 1.1941-2.666 2.6637-2.666l10.6796-.0004c1.4695 0 2.6637 1.1964 2.6637 2.6665l.0002 18.0322c0 .9835-.7953 1.782-1.782 1.782z"/><path id="_319487424" d="m134.732 107.076h-69.2285c-.987 0-1.7822-.7975-1.7822-1.7816.0002-.9842.7951-1.782 1.782-1.782l69.2287-.0004c.9839 0 1.782.7982 1.782 1.7824 0 .9839-.7983 1.782-1.782 1.7816z"/><path id="_319487592" d="m50.2636 136.777c-.9838 0-1.7821-.7982-1.7821-1.782l.0001-23.7813h-14.4692v23.7813c0 .9835-.7985 1.782-1.7823 1.782-.9837 0-1.782-.7982-1.782-1.782l.0003-24.5738c0-1.5283 1.2434-2.7714 2.7717-2.7714l16.0537-.0005c1.5283 0 2.7717 1.2438 2.7717 2.7721l.0001 24.5736c0 .9835-.7983 1.782-1.782 1.782z"/><path id="_319487376" d="m53.8708 93.3222h.0031zm-24.6664 4.9572h24.0848v-4.9572h-24.0848zm24.6664 3.564-25.2448-.0003c-1.6459 0-2.9856-1.3383-2.9856-2.9838v-6.117c0-1.6451 1.3396-2.9839 2.9855-2.9839l25.2449-.0002c1.6428 0 2.9824 1.3392 2.9824 2.9844v6.1167c0 1.6455-1.3396 2.9842-2.9824 2.9841z"/><path id="_319487112" d="m157.289 148.727h-39.2812c-1.0023 0-1.9709-.4205-2.6545-1.1505-.6773-.7241-1.0271-1.7047-.9622-2.6947l1.6273-23.2714c.0682-.9814.9188-1.7201 1.9027-1.653.9809.0684 1.7201.9203 1.652 1.902l-1.6273 23.2636c.0279.0404.0526.0404.0619.0404h39.2813c.0188 0 .0216-.0032.0309-.0125.0094-.0094.0247-.0308.0278-.0742l-1.6242-23.2175c-.0679-.9815.6713-1.8332 1.6551-1.9018.9841-.0649 1.8316.672 1.8996 1.6532l1.6273 23.265c.0032.0216.0031.0434.0031.065.0342.9993-.3403 1.98-1.0271 2.6885-.6834.7085-1.6057 1.0982-2.5925 1.0979z"/><path id="_319486920" d="m116.556 115.597c-1.2004 0-2.1781.9776-2.1781 2.1785.0001 1.201.9776 2.1783 2.178 2.1783h42.2174c1.2004 0 2.1778-.9773 2.1778-2.1783.0003-1.2011-.9776-2.1783-2.1779-2.1783zm42.2173 7.9208h-42.2173c-3.1648 0-5.7421-2.5761-5.7421-5.7423.0001-3.1662 2.5771-5.7422 5.742-5.7422l42.2174-.0003c3.1679 0 5.7418 2.5764 5.7418 5.7425.0003 3.1662-2.574 5.7423-5.7418 5.7423z"/><path id="_319486728" d="m127.731 148.727c-.9839 0-1.7822-.7978-1.7822-1.7816l.0003-17.1135c0-.9842.7979-1.7819 1.7817-1.7819.9841-.0001 1.782.7979 1.782 1.782l.0002 17.1134c0 .9835-.7983 1.7819-1.782 1.7816z"/><path id="_319486488" d="m137.665 148.727c-.984 0-1.7822-.7978-1.7822-1.7816l.0002-17.1135c0-.9842.798-1.7819 1.7818-1.7819.9841-.0001 1.782.7979 1.782 1.782l.0002 17.1134c0 .9835-.7983 1.7819-1.782 1.7816z"/><path id="_319486560" d="m147.602 148.727c-.9836 0-1.7821-.7978-1.7821-1.7816l.0002-17.1135c0-.9842.798-1.7819 1.7819-1.7819.9839-.0001 1.782.7979 1.782 1.782v17.1134c0 .9835-.7983 1.7819-1.782 1.7816z"/><path id="_319487016" d="m142.652 115.597c-.984 0-1.7822-.7973-1.7822-1.7814l.0002-38.9991c0-.5729-.2291-1.1172-.6468-1.533-.4144-.4161-.959-.6447-1.5313-.6447-1.2004 0-2.178.977-2.178 2.1779v38.9986c0 .9843-.7983 1.7819-1.782 1.7819-.9836-.0002-1.782-.7975-1.782-1.7816v-38.9991c0-3.1659 2.5739-5.7417 5.742-5.7417 1.5252 0 2.9638.5996 4.0527 1.6885 1.0894 1.0889 1.6892 2.5282 1.6892 4.0534l.0002 38.9986c0 .9843-.7984 1.7819-1.782 1.7817z"/><path id="_319486680" d="m116.764 67.8543 2.218 1.6911c.1702.1292.3124.2875.4268.4676l.7983 1.2678.8664-1.2352c.1236-.1765.2783-.3291.4577-.45l2.2804-1.552-2.2247-1.7162c-.1699-.1305-.3156-.2899-.427-.4718l-.7794-1.2577-.8848 1.2454c-.1207.1695-.2725.317-.4426.4349zm3.3659 8.4259c-.0156 0-.0312.0001-.0435-.0003-.5969-.0151-1.1478-.327-1.4665-.8316l-2.054-3.2636-3.9169-2.9873c-.4545-.3466-.7146-.8894-.7023-1.4602.0156-.571.3001-1.1005.7704-1.4244l4.0559-2.7917 2.2585-3.1735c.3435-.4861.9156-.7637 1.5066-.7479.5973.0188 1.1446.3351 1.4602.8421l2.0203 3.261 3.9169 3.02c.4515.3487.7081.8934.6927 1.4642-.0185.5708-.3063 1.0992-.7796 1.4204l-4.0434 2.751-2.2183 3.1627c-.3339.4764-.8787.7592-1.457.7591z"/><path id="_319486944" d="m131.218 50.806 2.2243 1.6974c.173.1316.3215.2938.436.4782l.786 1.2693.8816-1.2293c.1207-.1646.266-.3077.433-.4234l2.2679-1.5744-2.2275-1.6973c-.1734-.1317-.3188-.2932-.4332-.4775l-.7857-1.2697-.8847 1.2289c-.1177.1646-.2633.3083-.4303.4241zm3.3381 8.4321c-.022 0-.0405-.0001-.0621-.0007-.594-.0205-1.1417-.3363-1.4541-.8421l-2.0199-3.2568-3.9107-2.9831c-.4518-.346-.7148-.8872-.6994-1.4568.0126-.5699.297-1.0991.7642-1.424l4.025-2.7952 2.2616-3.1456c.3467-.4831.9125-.7581 1.5096-.7407.5941.0202 1.1386.3363 1.4511.8418l2.0202 3.2568 3.9107 2.9831c.4545.3456.7144.8871.702 1.4571-.0122.5692-.297 1.0988-.7641 1.4236l-4.0278 2.7953-2.2616 3.1456c-.3342.4663-.8726.742-1.4447.7417z"/></g></g></svg>