<svg id="Capa_1" enable-background="new 0 0 512 512" height="512" viewBox="0 0 512 512" width="512" xmlns="http://www.w3.org/2000/svg"><g><g><path d="m209.412 512h-108.72c-4.142 0-7.5-3.357-7.5-7.5v-31.061c0-4.143 3.358-7.5 7.5-7.5h32.04c4.142 0 7.5 3.357 7.5 7.5s-3.358 7.5-7.5 7.5h-24.54v16.061h89.085l-8.03-16.061h-23.835c-4.142 0-7.5-3.357-7.5-7.5s3.358-7.5 7.5-7.5h28.47c2.841 0 5.438 1.605 6.708 4.146l15.53 31.061c1.799 6.111-.437 9.729-6.708 10.854z"/></g><g><path d="m457.903 62.128h-85.683v-8.034c0-4.143-3.358-7.5-7.5-7.5h-23.562v-23.583c0-1.991-.792-3.9-2.2-5.307l-15.531-15.511c-1.406-1.404-3.312-2.193-5.3-2.193h-124.25c-1.987 0-3.894.789-5.3 2.193l-15.531 15.511c-1.409 1.406-2.2 3.315-2.2 5.307v23.583h-23.562c-4.142 0-7.5 3.357-7.5 7.5v8.031h-85.687c-4.142 0-7.5 3.357-7.5 7.5v31.062c0 4.143 3.358 7.5 7.5 7.5h85.687v8.031c0 4.143 3.358 7.5 7.5 7.5h23.562v24.171c0 2.041.832 3.994 2.304 5.408l15.531 14.922c1.397 1.342 3.259 2.092 5.196 2.092h8.031v54.625c0 4.143 3.358 7.5 7.5 7.5h8.031v116.75c0 4.143 3.358 7.5 7.5 7.5h.266v23.562c0 4.143 3.358 7.5 7.5 7.5h.266v85.691c0 1.164.271 2.312.792 3.354l15.53 31.061c2.574 5.462 10.843 5.461 13.416 0l15.53-31.061c.521-1.042.792-2.19.792-3.354v-28.279c-.344-9.931-14.659-9.923-15 0v26.509l-8.03 16.061-8.03-16.061v-83.92h16.061v24.721c.344 9.931 14.659 9.923 15 0v-24.722h.267c4.142 0 7.5-3.357 7.5-7.5v-23.562h.266c4.142 0 7.5-3.357 7.5-7.5v-116.75h8.031c4.142 0 7.5-3.357 7.5-7.5v-54.625h8.031c1.937 0 3.799-.75 5.196-2.092l15.531-14.922c1.472-1.414 2.304-3.367 2.304-5.408v-24.171h23.562c4.142 0 7.5-3.357 7.5-7.5v-8.03h29.862c9.931-.344 9.923-14.659 0-15h-29.86v-16.06h78.181v16.061h-15.63c-9.931.344-9.923 14.659 0 15h23.13c4.142 0 7.5-3.357 7.5-7.5v-31.061c0-4.143-3.358-7.5-7.5-7.5zm-178.338-47.128v47.125h-47.125v-47.125zm-217.968 78.188v-16.063h78.187v16.062h-78.187zm93.187 15.531v-47.125h16.062v47.125zm124.781 186.434h-47.125v-16.123h47.125zm0 46.534h-47.125v-31.533h47.125zm-7.766 31.061h-31.593v-16.062h31.593zm7.766-108.718h-47.125v-31.594h47.125zm15.531-46.593h-78.188v-47.125h78.188zm31.062-72.742-11.05 10.616h-118.211l-11.05-10.617v-118.574l11.134-11.12h20.458v54.625c0 4.143 3.358 7.5 7.5 7.5h62.125c4.142 0 7.5-3.357 7.5-7.5v-54.625h20.459l11.134 11.12v118.575zm31.062-35.976h-16.062v-47.125h16.062z"/><path d="m287.065 93.188h-62.125c-9.931.344-9.923 14.659 0 15h62.125c9.931-.344 9.923-14.66 0-15z"/><path d="m411.314 465.936h-93.187c-2.841 0-5.438 1.605-6.708 4.146l-15.531 31.062c-1.799 6.112.437 9.73 6.708 10.854h108.718c4.142 0 7.5-3.357 7.5-7.5v-31.062c0-4.143-3.358-7.5-7.5-7.5zm-7.5 31.062h-89.083l8.031-16.062h81.052z"/><path d="m314.156 448.229c3.535 2.928 7.071 2.928 10.606 0l76.875-76.875c2.929-2.93 2.929-7.678 0-10.607-2.929-2.928-7.678-2.928-10.606 0l-76.875 76.875c-2.929 2.929-2.929 7.677 0 10.607z"/><path d="m324.762 382.336 32.947-32.947c2.929-2.93 2.929-7.678 0-10.607-2.929-2.928-7.678-2.928-10.606 0l-32.947 32.947c-2.929 2.93-2.887 7.637 0 10.607 2.346 2.414 7.471 3.039 10.606 0z"/><path d="m121.915 360.746c-2.929-2.928-7.678-2.928-10.606 0-2.929 2.93-2.929 7.678 0 10.607l76.875 76.875c3.535 2.928 7.071 2.928 10.606 0 2.929-2.93 2.929-7.678 0-10.607z"/><path d="m165.844 338.781c-2.928-2.927-7.677-2.929-10.606 0-2.929 2.93-2.929 7.678 0 10.607l32.946 32.947c3.535 2.928 7.071 2.928 10.606 0 2.929-2.93 2.929-7.678 0-10.607z"/></g></g></svg>