<svg id="Layer_1" enable-background="new 0 0 512 512" viewBox="0 0 512 512" xmlns="http://www.w3.org/2000/svg"><path d="m496 129.999h-46.582c-3.866 0-7 3.134-7 7v18.84h-212.943c-5.069-15.481-16.976-27.659-31.804-33.369v-58.219c1.98-1.551 3.766-3.337 5.316-5.317h54.292c3.866 0 7-3.134 7-7v-24.044c0-3.866-3.134-7-7-7h-54.292c-5.663-7.23-14.464-11.89-24.339-11.89s-18.676 4.66-24.339 11.89h-54.292c-3.866 0-7 3.134-7 7v24.045c0 3.866 3.134 7 7 7h54.292c1.551 1.98 3.336 3.766 5.316 5.317v58.219c-14.828 5.71-26.735 17.887-31.804 33.369h-58.24v-18.84c0-3.866-3.134-7-7-7h-46.581c-3.866 0-7 3.134-7 7v159.717c0 3.866 3.134 7 7 7h46.582c3.866 0 7-3.134 7-7v-25.533h56.52c4.661 24.926 26.588 43.609 52.547 43.609s47.886-18.684 52.547-43.609h211.223v25.533c0 3.866 3.134 7 7 7h46.581c3.866 0 7-3.134 7-7v-159.718c0-3.866-3.134-7-7-7zm-440.418 159.717h-32.582v-145.717h32.582zm194.697-254.826v10.045h-41.133c.268-1.636.414-3.312.414-5.022s-.146-3.387-.414-5.022h41.133zm-71.631-11.89c9.325 0 16.912 7.587 16.912 16.912s-7.587 16.912-16.912 16.912-16.912-7.587-16.912-16.912 7.587-16.912 16.912-16.912zm-71.63 21.935v-10.045h41.133c-.268 1.636-.414 3.312-.414 5.022s.146 3.387.414 5.022h-41.133zm66.608 25.475c1.636.269 3.312.414 5.022.414s3.387-.146 5.022-.414v48.761c-1.658-.158-3.332-.249-5.022-.249s-3.364.09-5.022.249zm51.395 186.773c-3.699 0-6.761 2.879-6.987 6.571-1.274 20.77-18.574 37.038-39.385 37.038s-38.11-16.269-39.386-37.038c-.226-3.692-3.287-6.571-6.986-6.571h-62.695v-87.344h63.599c3.309 0 6.166-2.317 6.85-5.555 3.833-18.172 20.075-31.361 38.618-31.361 18.544 0 34.785 13.189 38.618 31.361.684 3.237 3.54 5.555 6.85 5.555h218.302v87.344zm263.979 32.533h-32.582v-145.717h32.582zm-206.932 115.595c-1.184-2.378-3.611-3.882-6.268-3.882s-5.084 1.504-6.268 3.882l-19.801 39.802c-3.809 7.656-15.397 30.954 1.317 47.67 6.59 6.589 15.38 10.218 24.751 10.218s18.161-3.629 24.751-10.218c16.715-16.716 5.126-40.014 1.317-47.67zm8.583 77.571c-3.944 3.945-9.219 6.118-14.851 6.118s-10.906-2.173-14.851-6.118c-4.468-4.467-8.355-12.089 1.317-31.533l13.533-27.204 13.533 27.204c9.675 19.444 5.787 27.066 1.319 31.533zm44.551-184.909c-1.184-2.378-3.611-3.882-6.268-3.882s-5.084 1.504-6.268 3.882l-19.801 39.802c-3.809 7.656-15.398 30.955 1.317 47.67 6.59 6.589 15.38 10.218 24.751 10.218s18.161-3.629 24.75-10.218c16.717-16.715 5.127-40.014 1.318-47.67zm8.584 77.571c-3.945 3.945-9.22 6.118-14.852 6.118s-10.906-2.173-14.852-6.118c-4.468-4.467-8.354-12.088 1.318-31.533l13.533-27.204 13.533 27.204c9.675 19.445 5.788 27.066 1.32 31.533zm61.85 8.336c-1.184-2.378-3.611-3.882-6.268-3.882s-5.084 1.504-6.268 3.882l-19.8 39.802c-3.809 7.656-15.399 30.953 1.317 47.671 6.825 6.824 15.786 10.234 24.751 10.234 8.962 0 17.927-3.412 24.75-10.234h.001c16.716-16.716 5.126-40.015 1.317-47.671zm8.585 77.572c-8.19 8.189-21.514 8.188-29.702 0-4.469-4.468-8.356-12.09 1.317-31.534l13.532-27.204 13.534 27.204c9.674 19.445 5.786 27.067 1.319 31.534zm-6.549-220.527c-1.749 3.448-5.959 4.827-9.409 3.079l-15.244-7.728-25.234 10.483c-.874.362-1.784.536-2.683.536-2.389 0-4.69-1.226-5.992-3.378l-18.44-30.484-30.321 14.079c-2.686 1.246-5.864.671-7.939-1.441l-17.271-17.565-14.558 7.662c-3.423 1.801-7.655.487-9.455-2.934-1.801-3.422-.487-7.654 2.934-9.455l19.162-10.086c2.733-1.438 6.088-.916 8.252 1.287l17.458 17.755 29.406-13.654 7.999-15.025c1.344-2.524 4.095-3.963 6.931-3.671l29.942 3.237 18.044-9.807c3.396-1.845 7.647-.591 9.493 2.808 1.846 3.396.589 7.647-2.808 9.493l-19.965 10.851c-1.25.68-2.683.96-4.095.809l-27.41-2.963-5.008 9.408 16.514 27.3 22.651-9.41c1.889-.785 4.024-.704 5.851.221l18.118 9.184c3.446 1.748 4.824 5.961 3.077 9.409z"/></svg>