<?xml version="1.0" standalone="no"?>
<!DOCTYPE svg PUBLIC "-//W3C//DTD SVG 20010904//EN"
 "http://www.w3.org/TR/2001/REC-SVG-20010904/DTD/svg10.dtd">
<svg version="1.0" xmlns="http://www.w3.org/2000/svg"
 width="411.000000pt" height="136.000000pt" viewBox="0 0 411.000000 136.000000"
 preserveAspectRatio="xMidYMid meet">
<metadata>
Created by potrace 1.16, written by Peter Selinger 2001-2019
</metadata>
<g transform="translate(0.000000,136.000000) scale(0.100000,-0.100000)"
fill="#000000" stroke="none">
<path d="M0 680 l0 -680 2055 0 2055 0 0 680 0 680 -2055 0 -2055 0 0 -680z
m1198 356 c80 -37 152 -114 182 -194 47 -124 5 -293 -92 -377 -88 -75 -165
-95 -367 -95 l-125 0 105 108 c80 83 108 106 121 100 9 -5 39 -8 65 -8 39 0
56 6 82 28 28 23 34 35 34 68 0 70 -14 84 -126 125 -43 15 -57 25 -55 37 2 13
14 17 43 17 34 0 40 -3 43 -23 3 -20 8 -23 45 -20 l42 3 0 50 0 50 -37 3 c-21
2 -38 -1 -38 -7 0 -5 -12 -4 -27 5 -35 18 -74 18 -118 0 -40 -17 -55 -42 -55
-90 0 -49 33 -81 110 -108 51 -18 65 -28 65 -43 0 -17 -7 -20 -40 -20 -34 0
-40 4 -45 25 -5 21 -12 25 -48 28 l-42 3 0 -65 c0 -56 3 -66 17 -66 11 0 -19
-37 -82 -100 -93 -93 -102 -100 -140 -100 l-40 0 103 103 c97 97 102 104 102
145 0 31 -4 42 -15 42 -12 0 -15 16 -15 85 0 69 3 85 15 85 11 0 15 11 15 40
l0 40 -95 0 -95 0 0 -40 c0 -29 4 -40 15 -40 12 0 15 -16 15 -85 0 -69 -3 -85
-15 -85 -10 0 -15 -10 -15 -27 0 -22 -25 -53 -117 -145 l-118 -118 -200 0
-200 0 100 100 100 100 140 0 c205 0 255 20 255 100 0 35 -4 43 -30 58 -35 20
-37 28 -11 37 22 7 39 49 33 83 -2 13 -18 32 -35 43 -28 17 -51 19 -194 19
l-163 0 0 -38 c0 -34 -9 -46 -95 -132 l-95 -95 0 213 0 213 538 -3 537 -3 63
-29z m2157 15 c47 -22 89 -64 104 -104 21 -54 17 -57 -62 -57 -70 0 -74 1 -96
31 -20 27 -27 30 -69 27 -40 -3 -49 -8 -69 -37 -25 -38 -30 -97 -12 -150 12
-34 53 -61 92 -61 27 0 62 30 72 60 6 18 15 20 86 20 l79 0 -6 -27 c-13 -53
-23 -71 -60 -107 -93 -91 -278 -83 -371 15 -102 108 -74 311 52 376 48 25 76
31 150 32 48 0 82 -5 110 -18z m-1502 -6 c47 -19 67 -50 67 -100 0 -31 -6 -47
-24 -64 l-24 -23 40 -40 c39 -39 40 -43 35 -91 -4 -42 -10 -56 -40 -83 -50
-46 -90 -54 -269 -54 l-158 0 0 235 0 235 169 0 c126 0 177 -4 204 -15z m287
-145 c0 -147 2 -162 20 -180 25 -25 71 -26 101 -1 23 19 24 25 27 180 l4 161
79 0 79 0 0 -145 c0 -187 -10 -234 -60 -278 -78 -71 -261 -76 -348 -10 -55 42
-62 71 -62 263 l0 170 80 0 80 0 0 -160z m749 141 c21 -11 45 -31 54 -45 32
-48 14 -150 -30 -174 -14 -9 -13 -13 10 -38 25 -26 32 -50 51 -161 l6 -33 -80
0 -79 0 -6 38 c-21 119 -37 136 -119 130 l-41 -3 -3 -83 -3 -83 -77 3 -77 3
-3 233 -2 232 180 0 c159 0 185 -2 219 -19z m781 -61 l0 -80 75 0 75 0 0 80 0
80 80 0 80 0 -2 -232 -3 -233 -77 -3 -77 -3 -3 93 -3 93 -72 3 -73 3 0 -96 0
-95 -80 0 -80 0 0 235 0 235 80 0 80 0 0 -80z m-3380 -235 c0 -78 -2 -85 -20
-85 -16 0 -20 -7 -20 -33 0 -28 -14 -46 -95 -127 l-95 -95 0 100 0 100 112
112 c62 62 114 113 115 113 2 0 3 -38 3 -85z m445 -275 l-100 -100 -70 0 -70
0 100 100 100 100 70 0 70 0 -100 -100z m1088 59 c23 -28 23 -100 -1 -129 -12
-15 -33 -24 -65 -27 l-47 -6 0 98 0 98 48 -7 c30 -4 53 -13 65 -27z m618 12
c22 -17 23 -22 12 -50 -8 -21 -8 -42 -2 -64 12 -43 11 -59 -3 -55 -7 3 -15 20
-18 39 -5 31 -8 34 -42 37 l-38 3 0 -40 c0 -23 -4 -41 -10 -41 -6 0 -10 38
-10 95 l0 95 44 0 c28 0 52 -7 67 -19z m857 3 c23 -16 30 -58 12 -69 -7 -4 -7
-12 0 -25 13 -24 13 -80 0 -80 -5 0 -10 9 -10 21 0 39 -19 59 -55 59 -34 0
-35 -1 -35 -40 0 -22 -4 -40 -10 -40 -6 0 -10 38 -10 95 l0 95 43 0 c23 0 53
-7 65 -16z"/>
</g>
</svg>
