<svg id="Capa_1" enable-background="new 0 0 512 512" height="512" viewBox="0 0 512 512" width="512" xmlns="http://www.w3.org/2000/svg"><g id="outline"><path d="m488 304h-25.9c0-.1 0-.1 0-.2-9.3-34.6-14-70.3-14-106.1v-29.7c0-4.4-3.6-8-8-8h-8v-32c0-17.7-14.3-32-32-32h-1c-3.7-14.1-16.4-24-31-24h-8v-24c0-17.7-14.3-32-32-32h-72c-4.4 0-8 3.6-8 8v5.7c0 18.9 15.4 34.3 34.3 34.3h21.6v24c0 17.7 14.3 32 32 32h17c3.7 14.1 16.4 24 31 24v16h-24c-4.4 0-8 3.6-8 8v29.8c0 35.9-4.7 71.6-14.1 106.2h-19.8c-9.4-34.6-14.1-70.4-14.1-106.2v-29.8c0-4.4-3.6-8-8-8h-8v-48c0-14.9-10.3-27.8-24.8-31.2-3.4-14.5-16.3-24.8-31.2-24.8h-16v-8c0-17.7-14.3-32-32-32h-144c-13.3 0-24 10.7-24 24s10.7 24 24 24h9.8c3.8 9.6 13.1 16 23.4 16h95.6c3.8 18.6 20.2 32 39.2 32h5.8c5.7 0 10.2 4.6 10.2 10.2v37.8h-8c-4.4 0-8 3.6-8 8v29.8c0 35.9-4.7 71.6-14.1 106.2h-19.7l-8-32h9.8c4.4 0 8-3.6 8-8s-3.6-8-8-8h-13.8l-8-32h13.8c4.4 0 8-3.6 8-8s-3.6-8-8-8h-17.8l-4-16h13.8c4.4 0 8-3.6 8-8s-3.6-8-8-8h-64c-4.4 0-8 3.6-8 8s3.6 8 8 8h13.8l-4 16h-17.8c-4.4 0-8 3.6-8 8s3.6 8 8 8h13.8l-8 32h-13.8c-4.4 0-8 3.6-8 8s3.6 8 8 8h9.8l-8 32h-9.8c-4.4 0-8 3.6-8 8v40h-16c-2.5 0-4.9 1.2-6.4 3.2l-24 32c-1 1.4-1.6 3.1-1.6 4.8v96c0 4.4 3.6 8 8 8h464c4.4 0 8-3.6 8-8v-176c0-4.4-3.6-8-8-8zm-424 176h-32v-85.3l16-21.3 16 21.3zm304-368c0-4.4-3.6-8-8-8h-24c-8.8 0-16-7.2-16-16v-32c0-4.4-3.6-8-8-8h-29.7c-9.2 0-17-6.9-18.2-16h63.9c8.8 0 16 7.2 16 16v32c0 4.4 3.6 8 8 8h16c8.8 0 16 7.2 16 16 0 4.4 3.6 8 8 8h8c8.8 0 16 7.2 16 16v32h-16v-24c0-4.4-3.6-8-8-8h-8c-8.8 0-16-7.2-16-16zm0 85.8v-21.8h64v21.8c0 3.4.1 6.8.1 10.2h-64.3c.1-3.4.2-6.8.2-10.2zm-.8 26.2h65.7c.3 5.3.8 10.7 1.3 16h-68.2c.4-5.3.8-10.7 1.2-16zm-3.2 32h72c2.2 16.2 5.4 32.2 9.5 48h-91.1c4.1-15.8 7.3-31.8 9.6-48zm-150.2-160h-5.8c-13.2 0-24-10.8-24-24 0-4.4-3.6-8-8-8h-102.8c-4.8 0-8.8-3.7-9.1-8.5-.3-4.2-3.8-7.5-8-7.5h-16.1c-4.4 0-8-3.6-8-8s3.6-8 8-8h144c8.8 0 16 7.2 16 16v16c0 4.4 3.6 8 8 8h24c8.8 0 16 7.2 16 16 0 4.4 3.6 8 8 8 8.8 0 16 7.2 16 16v48h-32v-37.8c0-14.4-11.8-26.2-26.2-26.2zm10.2 101.8v-21.8h64v21.8c0 3.4.1 6.8.1 10.2h-64.3c.1-3.4.2-6.8.2-10.2zm-.8 26.2h65.7c.3 5.3.8 10.7 1.3 16h-68.2c.4-5.3.8-10.7 1.2-16zm-3.2 32h72c2.2 16.2 5.4 32.2 9.5 48h-91.1c4.1-15.8 7.3-31.8 9.6-48zm-70.2 16 5 20.1-26.8-20.1zm-12-48 3.7 14.9-12.4-14.9zm-11.6-32h3.5l4 16h-11.5zm-10.3 41.2 19 22.8h-24.7zm-10.4 41.9 38.5 28.9h-45.8zm-41.5 92.9h76l12 16h-76zm64 112h-16v-24h16zm32 0h-16v-32c0-4.4-3.6-8-8-8h-32c-4.4 0-8 3.6-8 8v32h-16v-80h80zm0-112-9.6-12.8c-1.5-2-3.9-3.2-6.4-3.2h16zm152 112h-136v-64h128v24c0 4.4 3.6 8 8 8zm32 0h-16v-32h16zm32 0h-16v-32h16zm8-48h-64v-16h64zm96 48h-88v-32c4.4 0 8-3.6 8-8v-24h80zm0-80h-304v-8c0-1.7-.6-3.4-1.6-4.8l-3-4c2.8-1.3 4.6-4.1 4.6-7.2v-32c0-4.4-3.6-8-8-8h-32c-4.4 0-8 3.6-8 8v8h-48v-32h400z"/><path d="m232 336h-32c-4.4 0-8 3.6-8 8v32c0 4.4 3.6 8 8 8h32c4.4 0 8-3.6 8-8v-32c0-4.4-3.6-8-8-8zm-8 32h-16v-16h16z"/><path d="m296 336h-32c-4.4 0-8 3.6-8 8v32c0 4.4 3.6 8 8 8h32c4.4 0 8-3.6 8-8v-32c0-4.4-3.6-8-8-8zm-8 32h-16v-16h16z"/><path d="m320 344v32c0 4.4 3.6 8 8 8h32c4.4 0 8-3.6 8-8v-32c0-4.4-3.6-8-8-8h-32c-4.4 0-8 3.6-8 8zm16 8h16v16h-16z"/><path d="m392 384h32c4.4 0 8-3.6 8-8v-32c0-4.4-3.6-8-8-8h-32c-4.4 0-8 3.6-8 8v32c0 4.4 3.6 8 8 8zm8-32h16v16h-16z"/><path d="m140.4 97.3c-3.7-2.5-8.6-1.5-11.1 2.2l-16 24c-2.5 3.7-1.5 8.6 2.2 11.1 1.3.9 2.9 1.3 4.4 1.3h9.1l-7.7 11.6c-2.5 3.7-1.5 8.6 2.2 11.1s8.6 1.5 11.1-2.2c0 0 0 0 0-.1l16-24c2.5-3.7 1.5-8.6-2.2-11.1-1.3-.9-2.9-1.3-4.4-1.3h-9.1l7.7-11.6c2.5-3.5 1.5-8.5-2.2-11z"/></g></svg>