<svg height="512pt" viewBox="-34 0 512 512" width="512pt" xmlns="http://www.w3.org/2000/svg"><path d="m116.328125 128c2.632813 0 5.210937-1.070312 7.070313-2.929688 1.871093-1.859374 2.929687-4.441406 2.929687-7.070312s-1.058594-5.210938-2.929687-7.070312c-1.859376-1.859376-4.4375-2.929688-7.070313-2.929688-2.628906 0-5.207031 1.070312-7.066406 2.929688-1.863281 1.859374-2.933594 4.441406-2.933594 7.070312s1.070313 5.210938 2.933594 7.070312c1.859375 1.859376 4.4375 2.929688 7.066406 2.929688zm0 0"/><path d="m434 54h-140.832031v-24c0-16.542969-13.457031-30-30-30h-82.335938c-16.542969 0-30 13.457031-30 30v24h-140.832031c-5.523438 0-10 4.476562-10 10v54c0 5.523438 4.476562 10 10 10h22v312.5c0 39.425781 32.074219 71.5 71.5 71.5h237c39.425781 0 71.5-32.074219 71.5-71.5v-312.5h22c5.523438 0 10-4.476562 10-10v-54c0-5.523438-4.476562-10-10-10zm-263.167969-24c0-5.515625 4.488281-10 10-10h82.335938c5.511719 0 10 4.484375 10 10v24h-102.335938zm253.167969 78h-267.667969c-5.519531 0-10 4.476562-10 10s4.480469 10 10 10h183.667969v52.25c0 5.523438 4.476562 10 10 10s10-4.476562 10-10v-52.25h32v312.5c0 28.398438-23.101562 51.5-51.5 51.5h-237c-28.398438 0-51.5-23.101562-51.5-51.5v-312.5h24.25c5.523438 0 10-4.476562 10-10s-4.476562-10-10-10h-56.25v-34h404zm0 0"/><path d="m143.476562 256.359375c-9.46875 10.652344-16.726562 23.226563-21.203124 36.691406-4.203126 1.550781-8.308594 3.453125-12.265626 5.738281-24.542968 14.167969-39.808593 40.605469-39.839843 68.992188-.003907 4.96875 3.640625 9.1875 8.558593 9.90625 4.921876.710938 9.617188-2.289062 11.03125-7.050781 2.78125-9.375 8.96875-17.230469 17.425782-22.113281 3.613281-2.085938 7.433594-3.496094 11.3125-4.296876 4.246094 24.4375 17.039062 46.578126 36.113281 62.53125-2.667969 2.988282-5.820313 5.574219-9.394531 7.636719-8.457032 4.882813-18.351563 6.320313-27.863282 4.039063-4.835937-1.15625-9.785156 1.410156-11.621093 6.027344-1.835938 4.617187-.003907 9.882812 4.300781 12.363281 12.300781 7.082031 26.078125 10.625 39.851562 10.621093 13.773438 0 27.546876-3.542968 39.816407-10.625 3.957031-2.285156 7.660156-4.890624 11.101562-7.753906 6.945313 1.421875 14.058594 2.148438 21.199219 2.148438s14.261719-.726563 21.203125-2.148438c3.441406 2.863282 7.140625 5.46875 11.101563 7.753906 12.269531 7.082032 26.039062 10.625 39.8125 10.625 13.773437 0 27.554687-3.539062 39.851562-10.621093 4.308594-2.480469 6.140625-7.746094 4.300781-12.363281-1.835937-4.617188-6.792969-7.1875-11.617187-6.027344-9.515625 2.277344-19.410156.84375-27.867188-4.039063-3.570312-2.0625-6.722656-4.648437-9.390625-7.636719 19.074219-15.953124 31.867188-38.09375 36.113281-62.53125 3.878907.796876 7.695313 2.210938 11.3125 4.296876 8.453126 4.882812 14.644532 12.734374 17.425782 22.113281 1.414062 4.761719 6.105468 7.765625 11.03125 7.050781 4.917968-.71875 8.5625-4.9375 8.558594-9.910156-.035157-28.386719-15.300782-54.820313-39.839844-68.988282-3.957032-2.285156-8.058594-4.1875-12.257813-5.734374-4.464843-13.441407-11.765625-26.074219-21.210937-36.699219.761718-4.421875 1.167968-8.9375 1.167968-13.515625 0-28.335938-15.261718-54.773438-39.828124-68.996094-4.300782-2.488281-9.777344-1.441406-12.859376 2.457031-3.078124 3.898438-2.828124 9.472657.589844 13.078125 6.730469 7.097656 10.4375 16.386719 10.4375 26.148438 0 4.167968-.683594 8.171875-1.925781 11.929687-11.527344-4.230469-23.636719-6.371093-36.105469-6.371093-12.457031 0-24.570312 2.148437-36.105468 6.375-1.242188-3.753907-1.925782-7.765626-1.925782-11.933594 0-9.761719 3.707032-19.050782 10.433594-26.148438 3.421875-3.605468 3.671875-9.175781.589844-13.078125-3.078125-3.898437-8.554688-4.945312-12.855469-2.457031-24.566406 14.222656-39.828125 40.660156-39.828125 68.996094-.003906 4.582031.402344 9.097656 1.164062 13.519531zm7.617188 22.8125c1.644531 3.203125 3.5 6.296875 5.558594 9.25-3.589844-.304687-7.199219-.367187-10.800782-.1875 1.558594-3.121094 3.3125-6.148437 5.242188-9.0625zm93.851562 46.976563c0 12.652343-10.292968 22.945312-22.945312 22.945312s-22.945312-10.292969-22.945312-22.945312c0-12.652344 10.292968-22.945313 22.945312-22.945313s22.945312 10.296875 22.945312 22.945313zm-105.738281 19.601562c8.117188 2.949219 15.28125 8.648438 19.929688 16.695312 4.519531 7.828126 6.078125 16.804688 4.515625 25.601563-12.125-11.425781-20.628906-26.128906-24.445313-42.296875zm24.363281 80.128906c9.058594-7.589844 15.5625-17.75 18.683594-29.398437 4.011719-14.972657 1.953125-30.609375-5.796875-44.035157-14.269531-24.714843-44.105469-34.96875-70.054687-25.539062 3.9375-4.195312 8.503906-7.851562 13.605468-10.796875 18.726563-10.808594 41.777344-10.554687 60.179688.28125-.734375 3.140625-1.132812 6.402344-1.132812 9.761719 0 19.347656 12.867187 35.746094 30.492187 41.097656.183594 21.355469-11.125 41.441406-29.847656 52.253906-5.097657 2.9375-10.535157 5.0625-16.128907 6.375zm53.195313-14.832031c1.957031-3.027344 3.707031-6.179687 5.234375-9.441406 1.527344 3.257812 3.277344 6.410156 5.230469 9.433593-3.480469.210938-6.980469.21875-10.464844.007813zm63.582031-23c-1.5625-8.796875-.003906-17.773437 4.515625-25.601563 4.648438-8.046874 11.8125-13.75 19.929688-16.699218-3.816407 16.171875-12.320313 30.871094-24.445313 42.300781zm57.25-61.144531c-25.945312-9.425782-55.78125.824218-70.054687 25.542968-7.75 13.425782-9.808594 29.0625-5.796875 44.035157 3.121094 11.648437 9.628906 21.808593 18.683594 29.398437-5.59375-1.3125-11.03125-3.4375-16.128907-6.378906-18.726562-10.808594-30.03125-30.894531-29.847656-52.253906 17.625-5.351563 30.492187-21.746094 30.492187-41.09375 0-3.359375-.398437-6.625-1.132812-9.761719 18.402344-10.839844 41.453125-11.09375 60.179688-.28125 5.101562 2.945313 9.667968 6.597656 13.605468 10.792969zm-39.441406-38.667969c-3.605469-.179687-7.214844-.117187-10.808594.1875 2.058594-2.953125 3.914063-6.046875 5.558594-9.253906 1.929688 2.917969 3.691406 5.945312 5.25 9.066406zm-51.71875-43.59375c-6.613281 5.5625-15.140625 8.921875-24.4375 8.921875s-17.820312-3.359375-24.433594-8.917969c7.875-2.363281 16.054688-3.558593 24.433594-3.558593 8.386719 0 16.566406 1.195312 24.4375 3.554687zm-81.582031-18.976563c4.808593 27.183594 28.601562 47.898438 57.144531 47.898438s52.335938-20.714844 57.144531-47.898438c1.667969 5.507813 2.546875 11.289063 2.546875 17.179688 0 21.628906-11.75 41.472656-30.351562 51.988281-7.683594-7.203125-18.003906-11.625-29.339844-11.625s-21.652344 4.421875-29.339844 11.625c-18.601562-10.515625-30.351562-30.359375-30.351562-51.988281 0-5.894531.878906-11.671875 2.546875-17.179688zm0 0"/><path d="m350 230.25c2.628906 0 5.210938-1.070312 7.070312-2.929688 1.859376-1.859374 2.929688-4.441406 2.929688-7.070312s-1.070312-5.210938-2.929688-7.070312c-1.859374-1.859376-4.441406-2.929688-7.070312-2.929688s-5.210938 1.070312-7.070312 2.929688c-1.859376 1.859374-2.929688 4.441406-2.929688 7.070312s1.070312 5.210938 2.929688 7.070312c1.859374 1.859376 4.441406 2.929688 7.070312 2.929688zm0 0"/></svg>