<?xml version="1.0" encoding="UTF-8"?>
<svg xmlns="http://www.w3.org/2000/svg" viewBox="0 0 64 64" width="512" height="512"><g id="Layer_32" data-name="Layer 32"><path d="M62,6H20a1,1,0,0,0-.871.51L14.353,15H11a3.99,3.99,0,0,0-1.057,7.84L1.129,38.51A1,1,0,0,0,2,40H6V58H8V40H43V58h2V40H61V58h2V7A1,1,0,0,0,62,6ZM60.291,8,49.231,27.662A3.989,3.989,0,0,0,46,26H33.459L43.584,8ZM48,30a2,2,0,1,1-2-2A2,2,0,0,1,48,30Zm-5.444,2H29a2,2,0,0,1,0-4H42.556a3.875,3.875,0,0,0,0,4ZM20.585,8H36.291l-4.953,8.805A4,4,0,0,0,28,15H16.647ZM30,19a2,2,0,1,1-2-2A2,2,0,0,1,30,19ZM9,19a2,2,0,0,1,2-2H24.556a3.875,3.875,0,0,0,0,4H11A2,2,0,0,1,9,19ZM43.416,38H3.71l8.437-15H28a4,4,0,0,0,3.887-3.093L38.585,8h2.706L31.166,26H29a4,4,0,0,0,0,8H45.666ZM61,38H50.772L61,19.817Zm0-22.261L48.478,38H45.709l2.73-4.853a3.97,3.97,0,0,0,1.515-2.693L61,10.817Z"/><rect x="36.953" y="18.5" width="8.031" height="1.999" transform="translate(3.888 45.647) rotate(-60.642)"/><rect x="48.635" y="14.334" width="5.354" height="1.999" transform="translate(12.784 52.53) rotate(-60.63)"/><rect x="24.055" y="10.278" width="3.952" height="1.999" transform="translate(3.436 28.432) rotate(-60.63)"/></g></svg>
