<svg xmlns="http://www.w3.org/2000/svg" viewBox="0 0 1065.75 552.6"><defs><style>.cls-1{fill:#ffba19;}</style></defs><g id="Layer_2" data-name="Layer 2"><g id="Layer_1-2" data-name="Layer 1"><path class="cls-1" d="M363.68,203.7q0-30-42-29.95H290.47v60.71h30.72q22,0,32.26-7.1t10.23-23.66"/><polygon class="cls-1" points="503.98 389.22 503.98 389.2 340.58 552.6 466.04 552.6 629.42 389.22 503.98 389.22"/><path class="cls-1" d="M290.47,342.4h33.27q45.58,0,45.58-34.13,0-32.92-45.07-32.94H290.47Z"/><path class="cls-1" d="M789.45,0H0V349.9L162.62,187.27h-.16V128.51H369.31q44.55,0,69.89,18.05t25.35,48.21q0,25-17.92,40.28t-52.22,18.86v2.37q75.76,4,75.77,60.32,0,72.63-105,72.62H162.46L0,551.68v.92H321.47L504,370.08v-41.2H532V187.27H504V128.51H648.92v58.76h-28V328.88h28v60.34h-.39L485.17,552.6h74.08L722.63,389.22H682.71V299.53H746.6v2.39q0,45.65,44.33,45.64,18,0,28-7.55t10-19a20.09,20.09,0,0,0-2.4-10.13,23.32,23.32,0,0,0-7.38-7.54,61.47,61.47,0,0,0-12.19-6.15c-4.79-1.86-10.38-4-16.76-6.35q-28.77-10.72-47.93-17.26t-27.15-12.11Q697.48,250,690.5,236.25t-7-35.52q0-36.1,23.77-56.94t68.47-20.85q46.34,0,63.9,29.23V128.76H896v80.7H837.26v-2.78q0-38.48-44.51-38.49-16.69,0-26,6.93a21.85,21.85,0,0,0-9.33,18.43,17.55,17.55,0,0,0,3.38,11.09c2.26,2.89,5.71,5.54,10.36,7.91a108.8,108.8,0,0,0,17.11,6.74q10.17,3.17,23.31,7.53,21.5,7.13,36,12.67t22.1,10.3q18.72,12.27,26.69,26.74t8,37q0,37.64-24.71,59.41t-70.14,21.79q-23.13,0-39.47-6.74t-27.89-22.62v23.81h-.39L578.38,552.6H789.45c152,0,276.3-124.34,276.3-276.3S941.42,0,789.45,0"/><polygon class="cls-1" points="162.46 328.87 193.18 328.87 193.18 187.28 181.75 187.28 0 369.02 0 532.57 162.46 370.11 162.46 328.87"/></g></g></svg>