<svg id="Layer_1" enable-background="new 0 0 500 500" viewBox="0 0 500 500" xmlns="http://www.w3.org/2000/svg"><g><path d="m399.426 475h-298.853c-20.325 0-36.249-10.896-36.249-24.81v-38.065c0-6.771 3.775-12.829 9.992-17.267-6.217-4.431-9.992-10.489-9.992-17.26v-38.07c0-6.771 3.775-12.829 9.992-17.261-6.217-4.438-9.992-10.496-9.992-17.267v-38.07c0-6.771 3.772-12.829 9.992-17.26-6.22-4.432-9.992-10.49-9.992-17.261v-38.07c0-6.771 3.775-12.829 9.992-17.267-6.217-4.431-9.992-10.489-9.992-17.261v-38.069c0-13.908 15.924-24.804 36.249-24.804h298.853c20.328 0 36.252 10.896 36.252 24.804v38.069c0 6.772-3.775 12.83-9.992 17.261 6.218 4.438 9.992 10.496 9.992 17.267v38.07c0 6.771-3.775 12.829-9.992 17.261 6.218 4.431 9.992 10.489 9.992 17.26v38.07c0 6.771-3.775 12.829-9.992 17.267 6.218 4.432 9.992 10.49 9.992 17.261v38.07c0 6.771-3.775 12.829-9.992 17.26 6.218 4.438 9.992 10.496 9.992 17.267v38.065c0 13.914-15.923 24.81-36.252 24.81zm-298.853-72.597c-12.723 0-21.162 5.851-21.162 9.723v38.065c0 3.872 8.439 9.723 21.162 9.723h298.853c12.723 0 21.165-5.851 21.165-9.723v-38.065c0-3.872-8.442-9.723-21.165-9.723-4.167 0-7.543-3.377-7.543-7.544 0-4.166 3.376-7.543 7.543-7.543 12.723 0 21.165-5.852 21.165-9.717v-38.07c0-3.866-8.442-9.718-21.165-9.718-4.167 0-7.543-3.377-7.543-7.544 0-4.166 3.376-7.543 7.543-7.543 12.723 0 21.165-5.852 21.165-9.724v-38.07c0-3.865-8.442-9.718-21.165-9.718-4.167 0-7.543-3.377-7.543-7.543 0-4.167 3.376-7.544 7.543-7.544 12.723 0 21.165-5.851 21.165-9.718v-38.07c0-3.872-8.442-9.724-21.165-9.724-4.167 0-7.543-3.376-7.543-7.543s3.376-7.543 7.543-7.543c12.723 0 21.165-5.852 21.165-9.718v-38.069c0-3.866-8.442-9.718-21.165-9.718h-298.853c-12.723 0-21.162 5.851-21.162 9.718v38.069c0 3.866 8.439 9.718 21.162 9.718 4.167 0 7.543 3.376 7.543 7.543s-3.376 7.543-7.543 7.543c-12.723 0-21.162 5.852-21.162 9.724v38.07c0 3.866 8.439 9.718 21.162 9.718 4.167 0 7.543 3.377 7.543 7.544 0 4.166-3.376 7.543-7.543 7.543-12.723 0-21.162 5.852-21.162 9.718v38.07c0 3.872 8.439 9.724 21.162 9.724 4.167 0 7.543 3.377 7.543 7.543 0 4.167-3.376 7.544-7.543 7.544-12.723 0-21.162 5.851-21.162 9.718v38.07c0 3.865 8.439 9.717 21.162 9.717 4.167 0 7.543 3.377 7.543 7.543 0 4.167-3.376 7.544-7.543 7.544z"/><path d="m305.661 184.615h-205.088c-4.167 0-7.544-3.376-7.544-7.543s3.377-7.543 7.544-7.543h205.087c4.167 0 7.543 3.376 7.543 7.543s-3.376 7.543-7.542 7.543z"/><path d="m347.183 257.213h-246.61c-4.167 0-7.544-3.377-7.544-7.543 0-4.167 3.377-7.544 7.544-7.544h246.61c4.167 0 7.544 3.377 7.544 7.544 0 4.166-3.377 7.543-7.544 7.543z"/><path d="m217.785 329.811h-117.212c-4.167 0-7.544-3.377-7.544-7.544 0-4.166 3.377-7.543 7.544-7.543h117.212c4.167 0 7.543 3.377 7.543 7.543 0 4.167-3.376 7.544-7.543 7.544z"/><path d="m332.698 402.403h-232.125c-4.167 0-7.544-3.377-7.544-7.544 0-4.166 3.377-7.543 7.544-7.543h232.125c4.167 0 7.543 3.377 7.543 7.543 0 4.167-3.376 7.544-7.543 7.544z"/><path d="m171.115 112.024h-59.872c-4.167 0-7.543-3.377-7.543-7.544v-32.665c0-4.167 3.376-7.544 7.543-7.544h59.872c4.167 0 7.543 3.377 7.543 7.544v32.665c-.001 4.167-3.377 7.544-7.543 7.544zm-52.329-15.086h44.785v-17.58h-44.785z"/><path d="m393.858 112.024h-154.828c-4.167 0-7.543-3.377-7.543-7.544v-37.662c0-22.082 17.968-40.05 40.056-40.05h89.805c22.085 0 40.053 17.968 40.053 40.05v37.663c0 4.166-3.377 7.543-7.543 7.543zm-147.285-15.086h139.741v-30.12c0-13.767-11.2-24.964-24.966-24.964h-89.805c-13.769 0-24.969 11.197-24.969 24.964v30.12z"/><path d="m358.702 112.024h-84.517c-4.166 0-7.543-3.377-7.543-7.544v-20.56c0-13.943 11.344-25.287 25.29-25.287h49.023c13.946 0 25.29 11.344 25.29 25.287v20.561c0 4.166-3.377 7.543-7.543 7.543zm-76.973-15.086h69.429v-13.018c0-5.622-4.576-10.202-10.203-10.202h-49.023c-5.628 0-10.203 4.579-10.203 10.202z"/><path d="m188.196 79.358h-94.034c-12.6 0-22.467-8.309-22.467-18.923v-16.512c-.001-10.614 9.867-18.923 22.467-18.923h94.034c12.596 0 22.465 8.309 22.465 18.923v16.513c-.001 10.613-9.869 18.922-22.465 18.922zm-94.034-39.272c-4.579 0-7.382 2.481-7.382 3.837v16.513c0 1.356 2.802 3.836 7.382 3.836h94.034c4.576 0 7.378-2.48 7.378-3.836v-16.513c0-1.356-2.802-3.837-7.378-3.837z"/><path d="m456.301 475h-412.602c-4.167 0-7.543-3.376-7.543-7.543s3.376-7.544 7.543-7.544h412.603c4.166 0 7.543 3.377 7.543 7.544-.001 4.167-3.378 7.543-7.544 7.543z"/></g></svg>