<svg id="Capa_1" enable-background="new 0 0 512 512" height="512" viewBox="0 0 512 512" width="512" xmlns="http://www.w3.org/2000/svg"><path d="m468.784 103.286h-77.284v-38.857h18.877v-30h-171.04v30h18.877v38.857h-214.998l-43.216 43.215v287.854l43.216 43.216h425.568l43.216-43.216v-287.854zm-180.57-38.857h73.286v38.857h-73.286zm-232.572 68.857h400.717l25.641 25.641v56.103c-11.794 3.404-19.373 10.438-25.339 15.983-6.929 6.439-10.746 9.987-19.915 9.987s-12.986-3.548-19.915-9.987c-8.18-7.602-19.381-18.013-40.339-18.013-20.957 0-32.158 10.411-40.337 18.013-6.929 6.439-10.745 9.987-19.914 9.987-9.168 0-12.984-3.547-19.913-9.987-8.179-7.602-19.38-18.013-40.336-18.013-20.957 0-32.158 10.411-40.336 18.014-6.929 6.439-10.744 9.986-19.911 9.986s-12.983-3.547-19.912-9.986c-8.179-7.603-19.38-18.014-40.337-18.014-20.956 0-32.157 10.411-40.336 18.013-6.929 6.44-10.745 9.987-19.913 9.987-9.167 0-12.983-3.547-19.912-9.987-5.964-5.544-13.542-12.579-25.335-15.983v-56.104zm400.716 314.285h-400.716l-25.642-25.641v-173.356c1.526 1.27 3.113 2.741 4.911 4.412 8.178 7.603 19.379 18.014 40.336 18.014s32.158-10.411 40.337-18.014c6.929-6.439 10.745-9.986 19.912-9.986 9.168 0 12.984 3.547 19.913 9.987 8.179 7.602 19.38 18.013 40.336 18.013s32.157-10.411 40.335-18.013c6.929-6.44 10.744-9.987 19.912-9.987 9.167 0 12.983 3.547 19.912 9.986 8.179 7.603 19.38 18.014 40.337 18.014s32.159-10.411 40.338-18.013c6.929-6.44 10.745-9.987 19.913-9.987 9.169 0 12.986 3.548 19.915 9.987 8.18 7.602 19.381 18.013 40.339 18.013s32.159-10.411 40.339-18.013c1.799-1.672 3.387-3.145 4.915-4.415v173.358z"/></svg>