<svg enable-background="new 0 0 68 68" viewBox="0 0 68 68" xmlns="http://www.w3.org/2000/svg"><g id="LINE"><g><path d="m19.1 42.5c1 0 1.9-.2 2.8-.4 3.3 7.4 8.7 13.5 16 18.2.2.1.4.2.5.2s.4-.1.5-.2c6.9-4.4 12.1-10.1 15.4-16.8.2-.5 0-1.1-.5-1.3s-1.1 0-1.3.5c-3.1 6.2-7.9 11.5-14.2 15.7-6.7-4.4-11.6-10.1-14.7-16.8 3.5-1.5 6.4-4.4 7.7-8.1.2-.5-.1-1.1-.6-1.3s-1.1.1-1.3.6c-1.7 4.7-6.2 7.8-11.1 7.8-.3 0-.5 0-.8 0-6.1-.4-11-5.5-11-11.8 0-3 1.2-6.8 3.4-11.2.3-.5.1-1.1-.4-1.3-.5-.3-1.1-.1-1.3.4-2.4 4.7-3.7 8.8-3.7 12.1 0 7.1 5.4 13 12.3 13.7 2 5.1 5 9.7 8.7 13.8.2.2.5.3.7.3s.5-.1.7-.3c.4-.4.4-1 .1-1.4-3.3-3.7-6-7.9-7.9-12.4z"/><path d="m63.2 21.4c-.1-.5-.5-.9-1-.9-16.6 0-22.8-9.7-22.9-9.8-.2-.3-.5-.5-.8-.5-.3 0-.7.2-.8.5 0 0-2.5 3.9-8.5 6.8-3.8-7.8-9.6-14.7-9.9-15.1-.3-.3-.5-.4-.8-.4-.3 0-.6.1-.8.4-.2.2-4 4.9-7.5 10.8-.3.5-.1 1.1.4 1.4s1.1.1 1.4-.4c2.5-4.3 5.3-7.9 6.6-9.6 2.6 3.4 11.7 15.6 11.7 24.1 0 .6.4 1 1 1s1-.4 1-1c0-1.6-.3-3.2-.7-4.9 2.5-1.2 4.9-2.6 6.9-4.3 3.6 2.9 9.5 6.4 18.2 7.4-.1 2.9-.7 7.1-2.3 11.7-.2.5.1 1.1.6 1.3.1 0 .2.1.3.1.4 0 .8-.3.9-.7 2-5.4 2.4-10.2 2.5-13.3 0-.5-.4-1-.9-1-9.3-.9-15.2-4.6-18.6-7.6-.4-.3-.9-.3-1.3 0-2 1.7-4.3 3.2-6.8 4.4-.3-.8-.6-1.7-1-2.6 4.5-2.2 7.2-4.9 8.5-6.4 2.2 2.7 9 9.3 22.8 9.6.3 4.7.7 27.6-22.8 41.4-2.8-1.7-5.4-3.5-7.8-5.5-.4-.4-1-.3-1.4.1s-.3 1 .1 1.4c2.6 2.2 5.5 4.3 8.6 6.1.2.1.3.1.5.1s.3 0 .5-.1c27.8-16 24.1-44.3 24.1-44.5z"/><path d="m19.5 35.8c0-.6-.4-1-1-1-3.4 0-6.2-2.8-6.2-6.2 0-.6-.4-1-1-1s-1 .4-1 1c0 4.5 3.7 8.2 8.2 8.2.5 0 1-.4 1-1z"/></g></g><g id="FLAT" display="none"><g display="inline"><g><path d="m31.3 28.7c0 5.7-3.7 10.5-8.9 12.2-1.3.4-2.6.6-4 .6-.3 0-.6 0-.8 0-6.7-.4-12-6-12-12.8 0-10.3 12.8-25.7 12.8-25.7s6.4 7.6 10.2 15.8c.7 1.5 1.3 3 1.7 4.4.6 1.9 1 3.8 1 5.5z" fill="#a9dbf2"/></g><g><path d="m57.6 26c-.1 7.2-2.5 22.7-19.2 33.4-8.6-5.5-13.4-12.3-16-18.6 5.1-1.7 8.9-6.5 8.9-12.2 0-1.7-.3-3.5-.9-5.4 3.5-1.5 6.2-3.4 8.1-5 3.5 3.1 9.7 6.9 19.1 7.8z" fill="#c6da3d"/></g><g><path d="m38.5 65c-11.7-6.7-17.8-15.6-20.9-23.5h.8c1.4 0 2.7-.2 4-.6 2.7 6.3 7.4 13 16 18.6 16.8-10.8 19.1-26.3 19.2-33.5-9.4-.9-15.6-4.7-19.2-7.8-1.9 1.7-4.6 3.5-8.1 5-.5-1.5-1-3-1.7-4.4 7-3.1 9.8-7.6 9.8-7.6s6.3 10.3 23.7 10.3c.1 0 4 27.7-23.6 43.5z" fill="#feed91"/></g><g><path d="m18.4 36.8c-4.5 0-8.2-3.7-8.2-8.2 0-.6.4-1 1-1s1 .4 1 1c0 3.4 2.8 6.2 6.2 6.2.6 0 1 .4 1 1s-.4 1-1 1z" fill="#fff"/></g></g></g><g id="COLORED" display="none"><g display="inline"><path d="m31.3 28.7c0 5.7-3.7 10.5-8.9 12.2-1.3.4-2.6.6-4 .6-.3 0-.6 0-.8 0-6.7-.4-12-6-12-12.8 0-10.3 12.9-25.7 12.9-25.7s6.4 7.6 10.2 15.8c.7 1.5 1.3 3 1.7 4.4.6 1.9.9 3.8.9 5.5z" fill="#a9dbf2"/><path d="m57.7 26c-.1 7.2-2.5 22.7-19.2 33.4-8.6-5.5-13.4-12.3-16-18.6 5.1-1.7 8.9-6.5 8.9-12.2 0-1.7-.3-3.5-.9-5.4 3.5-1.5 6.2-3.4 8.1-5 3.5 3.1 9.6 6.9 19.1 7.8z" fill="#c6da3d"/><path d="m38.5 65c-11.7-6.7-17.8-15.6-20.9-23.5h.8c1.4 0 2.7-.2 4-.6 2.7 6.3 7.4 13 16 18.6 16.8-10.8 19.1-26.3 19.3-33.5-9.4-.9-15.6-4.7-19.2-7.8-1.9 1.7-4.6 3.5-8.1 5-.5-1.5-1-3-1.7-4.4 7-3.1 9.8-7.6 9.8-7.6s6.3 10.3 23.7 10.3c0 0 4 27.7-23.7 43.5z" fill="#feed91"/><g fill="#4a7da7"><path d="m16.9 42.4c2 5.1 5 9.7 8.7 13.8.2.2.5.3.7.3s.5-.1.7-.3c.4-.4.4-1 .1-1.4-3.4-3.6-6-7.8-8-12.3 1 0 1.9-.2 2.8-.4 3.3 7.4 8.7 13.5 16 18.2.2.1.4.2.5.2s.4-.1.5-.2c6.9-4.4 12.1-10.1 15.4-16.8.2-.5 0-1.1-.5-1.3s-1.1 0-1.3.5c-3.1 6.2-7.9 11.5-14.2 15.7-6.7-4.4-11.6-10.1-14.7-16.8 3.5-1.5 6.4-4.4 7.7-8.1.2-.5-.1-1.1-.6-1.3s-1.1.1-1.3.6c-1.7 4.7-6.2 7.8-11.1 7.8-.3 0-.5 0-.8 0-6.1-.4-11-5.5-11-11.8 0-3 1.2-6.8 3.4-11.2.3-.5.1-1.1-.4-1.3-.5-.3-1.1-.1-1.3.4-2.4 4.7-3.7 8.8-3.7 12.1.1 7 5.5 12.8 12.4 13.6z"/><path d="m10.5 14.5c.5.3 1.1.1 1.4-.4 2.5-4.3 5.3-7.9 6.6-9.6 2.7 3.5 11.8 15.7 11.8 24.2 0 .6.4 1 1 1s1-.4 1-1c0-1.6-.3-3.2-.7-4.9 2.5-1.2 4.9-2.6 6.9-4.3 3.6 2.9 9.5 6.4 18.2 7.4-.1 2.9-.7 7.1-2.3 11.7-.2.5.1 1.1.6 1.3.1 0 .2.1.3.1.4 0 .8-.3.9-.7 2-5.4 2.4-10.2 2.5-13.3 0-.5-.4-1-.9-1-9.3-.9-15.2-4.6-18.6-7.6-.4-.3-.9-.3-1.3 0-2 1.7-4.3 3.2-6.8 4.4-.3-.8-.6-1.7-1-2.6 4.5-2.2 7.2-4.9 8.5-6.4 2.2 2.7 9 9.3 22.8 9.6.3 4.7.7 27.6-22.8 41.4-2.8-1.7-5.4-3.5-7.8-5.5-.4-.4-1-.3-1.4.1s-.3 1 .1 1.4c2.6 2.2 5.5 4.3 8.6 6.1.2.1.3.1.5.1s.3 0 .5-.1c27.9-16 24.3-44.2 24.2-44.5-.1-.5-.5-.9-1-.9-16.6 0-22.8-9.7-22.9-9.8-.2-.3-.5-.5-.8-.5-.3 0-.7.2-.8.5 0 0-2.5 3.9-8.5 6.8-3.8-7.8-9.6-14.7-9.9-15.1-.4-.3-.6-.4-.9-.4-.3 0-.6.1-.8.4-.2.2-4 4.9-7.5 10.8-.3.4-.2 1.1.3 1.3z"/><path d="m12.3 28.7c0-.6-.4-1-1-1s-1 .4-1 1c0 4.5 3.7 8.2 8.2 8.2.6 0 1-.4 1-1s-.4-1-1-1c-3.4-.1-6.2-2.8-6.2-6.2z"/></g></g></g><g id="OUTLINE" display="none"><g display="inline"><g><path d="m38.5 66c-.2 0-.3 0-.5-.1-10-5.7-17.1-13.6-21.1-23.5-6.9-.8-12.3-6.7-12.3-13.7 0-10.6 12.6-25.7 13.1-26.3.2-.3.5-.4.8-.4.3 0 .6.1.8.4.3.3 6.1 7.3 9.9 15.1 6-2.9 8.5-6.8 8.5-6.8.2-.3.5-.5.8-.5.3 0 .7.2.8.5.1.1 6.3 9.8 22.9 9.8.5 0 .9.4 1 .9 0 .3 3.7 28.5-24.2 44.5-.2.1-.4.1-.5.1zm-20-61.4c-2.8 3.5-11.9 15.7-11.9 24.1 0 6.2 4.9 11.4 11 11.8.4 0 .7.3.9.6 3.7 9.5 10.4 17.1 19.9 22.7 23.6-13.7 23.2-36.6 22.9-41.3-13.8-.3-20.6-6.9-22.8-9.6-1.3 1.6-4.3 4.6-9.4 6.8-.5.2-1.1 0-1.3-.5-2.9-6.3-7.5-12.3-9.3-14.6z"/></g><g><path d="m31.3 28.7c0 5.7-3.7 10.5-8.9 12.2-1.3.4-2.6.6-4 .6-.3 0-.6 0-.8 0-6.7-.4-12-6-12-12.8 0-10.3 12.9-25.7 12.9-25.7s6.4 7.6 10.2 15.8c.7 1.5 1.3 3 1.7 4.4.6 1.9.9 3.8.9 5.5z" fill="#a9dbf2"/></g><g><path d="m57.7 26c-.1 7.2-2.5 22.7-19.2 33.4-8.6-5.5-13.4-12.3-16-18.6 5.1-1.7 8.9-6.5 8.9-12.2 0-1.7-.3-3.5-.9-5.4 3.5-1.5 6.2-3.4 8.1-5 3.5 3.1 9.6 6.9 19.1 7.8z" fill="#c6da3d"/></g><g><path d="m38.5 65c-11.7-6.7-17.8-15.6-20.9-23.5h.8c1.4 0 2.7-.2 4-.6 2.7 6.3 7.4 13 16 18.6 16.8-10.8 19.1-26.3 19.3-33.5-9.4-.9-15.6-4.7-19.2-7.8-1.9 1.7-4.6 3.5-8.1 5-.5-1.5-1-3-1.7-4.4 7-3.1 9.8-7.6 9.8-7.6s6.3 10.3 23.7 10.3c0 0 4 27.7-23.7 43.5z" fill="#feed91"/></g><g><path d="m18.5 36.8c-4.5 0-8.2-3.7-8.2-8.2 0-.6.4-1 1-1s1 .4 1 1c0 3.4 2.8 6.2 6.2 6.2.6 0 1 .4 1 1s-.5 1-1 1z" fill="#fff"/></g></g></g><g id="GLYPH" display="none"><g display="inline"><g><path d="m61.3 22.3c-13.8-.3-20.6-6.9-22.8-9.6-1.2 1.5-4 4.2-8.5 6.4.4.8.7 1.7 1 2.6 2.5-1.2 4.8-2.7 6.8-4.4.4-.3.9-.3 1.3 0 3.4 3 9.4 6.7 18.6 7.6.5.1.9.5.9 1-.1 6.6-2.3 23.1-19.7 34.2-.2.1-.4.2-.5.2s-.4-.1-.5-.2c-7.3-4.7-12.7-10.9-16-18.2-.9.2-1.8.4-2.8.4 3.8 8.9 10.3 16.1 19.4 21.4 23.5-13.9 23.1-36.7 22.8-41.4z"/></g><g><path d="m30.3 28.5c0-8.5-9.1-20.6-11.8-24.1-2.8 3.5-11.9 15.7-11.9 24.1 0 6.2 4.9 11.4 11 11.8h.8c6.6 0 11.9-5.3 11.9-11.8zm-11.8 8.1c-4.5 0-8.2-3.7-8.2-8.2 0-.6.4-1 1-1s1 .4 1 1c0 3.4 2.8 6.2 6.2 6.2.6 0 1 .4 1 1s-.5 1-1 1z"/></g><g><path d="m23.8 41.2c3.1 6.7 8 12.4 14.7 16.8 14.9-9.9 17.8-23.5 18.2-31.3-8.7-1.1-14.6-4.5-18.2-7.4-2 1.7-4.4 3.1-6.9 4.3.5 1.7.7 3.3.7 4.9 0 5.7-3.5 10.6-8.5 12.7z"/></g></g></g></svg>