<svg id="Layer_1" enable-background="new 0 0 512 512" viewBox="0 0 512 512" xmlns="http://www.w3.org/2000/svg"><path d="m495.9 131.6h-17.4v-36.8c0-14.6-11.8-26.4-26.4-26.4h-236.7c-14.6 0-26.4 11.9-26.4 26.4v36.8h-17.4c-8.8 0-16 7.2-16 16v98c0 8.8 7.2 16 16 16h17.4v84.6c0 53.7 43.7 97.4 97.4 97.4h94.6c53.7 0 97.4-43.7 97.4-97.4v-84.6h17.4c8.8 0 16-7.2 16-16v-98c.1-8.8-7.1-16-15.9-16zm-306.9 118.8h-17.4c-2.6 0-4.8-2.2-4.8-4.8v-98c0-2.6 2.2-4.8 4.8-4.8h17.4zm278.2 95.8c0 47.5-38.7 86.2-86.2 86.2h-94.7c-47.5 0-86.2-38.7-86.2-86.2v-251.4c0-8.4 6.8-15.2 15.2-15.2h236.7c8.4 0 15.2 6.8 15.2 15.2zm33.5-100.6c0 2.6-2.2 4.8-4.8 4.8h-17.4v-107.6h17.4c2.6 0 4.8 2.2 4.8 4.8zm-57.1-114h-219.8c-3.1 0-5.6 2.5-5.6 5.6v81.7c0 23.6 19.2 42.7 42.7 42.7h145.6c23.6 0 42.7-19.2 42.7-42.7v-81.7c0-3.1-2.5-5.6-5.6-5.6zm-187.2 118.4c-15.2-2.2-27-15.3-27-31.2v-76.1h62.2l-43.2 43.3c-2.2 2.2-2.2 5.7 0 7.9s5.7 2.2 7.9 0l51.2-51.2h56.2zm181.6-31.1c0 17.4-14.1 31.5-31.5 31.5h-30.2l34-34c2.2-2.2 2.2-5.7 0-7.9s-5.7-2.2-7.9 0l-41.9 41.9h-88.6l107.6-107.6h58.5zm-309.6-209c-1.6-1.6-4.1-2.1-6.2-1.2l-28.3 12.2c-.7.3-1.3.7-1.8 1.2l-24 24c-2.2 2.2-2.2 5.7 0 7.9l2.9 3-36.1 36.1c-1 1.1-1.6 2.5-1.6 4v80.3c-13 1-23.3 11.7-23.3 24.9v151.7c-5.4.1-9.8 4.6-9.8 10.1v14c0 5.6 4.5 10.1 10.1 10.1h8.2v27.1c0 3.1 2.5 5.6 5.6 5.6h3.3v77.2c0 3.1 2.5 5.6 5.6 5.6h28.9c3.1 0 5.6-2.5 5.6-5.6v-77.2h3.3c3.1 0 5.6-2.5 5.6-5.6v-27.1h8.2c5.6 0 10.1-4.5 10.1-10.1v-14c0-5.5-4.4-9.9-9.9-10.1v-64.1h21c16.8.3 24.9-24.1 13.7-36.5 0 0-10.2-12.2-10.2-12.2v-17.1h9c7.3 0 13.2-5.9 13.2-13.2v-20.5c0-7.3-5.9-13.2-13.2-13.2h-52.3v-68.9l28.1-28.2c2.8 3.3 6.6 6.1 10.4 2.5 0 0 24.1-24.1 24.1-24.1.5-.5.9-1.1 1.2-1.8l12.2-28.3c.9-2.1.4-4.6-1.2-6.2zm-72.1 482.6h-17.7v-71.6h17.7zm8.9-82.8h-35.6v-21.5h35.6zm18.3-32.7h-72.2v-11.8h72.1v11.8zm27.5-116.4c5.1 5.2 2.1 18.2-5.1 18.1h-21v-54.5h13.4v19.1c0 1.3.5 2.6 1.3 3.6zm7.4-72.2c1.1 0 2 .9 2 2v20.6c0 1.1-.9 2-2 2h-39.2c-3.1 0-5.6 2.5-5.6 5.6v65.7 69.7h-52.4v-151.7c0-7.6 6.2-13.8 13.9-13.8h83.3zm-62-86.4c-1 1.1-1.6 2.5-1.6 4v71.2h-10.4v-77.8l34.4-34.5 6.5 6.5.8.8zm63.5-50.6-19.3 19.3c-4-4-16.6-16.7-20.6-20.7l19.3-19.3 23.9-10.2 7 6.9z"/></svg>