<svg id="Capa_1" enable-background="new 0 0 512.002 512.002" height="512" viewBox="0 0 512.002 512.002" width="512" xmlns="http://www.w3.org/2000/svg"><g><g><path d="m81.716 62.009h12.304c5.523 0 10-4.478 10-10s-4.477-10-10-10h-12.304c-5.523 0-10 4.478-10 10s4.477 10 10 10z"/><path d="m10.003 62.009h12.304c5.523 0 10-4.478 10-10s-4.477-10-10-10h-12.304c-5.523 0-10 4.478-10 10s4.477 10 10 10z"/><path d="m52.012 32.304c5.523 0 10-4.478 10-10v-12.304c0-5.522-4.477-10-10-10s-10 4.478-10 10v12.304c0 5.522 4.477 10 10 10z"/><path d="m52.012 104.017c5.523 0 10-4.478 10-10v-12.304c0-5.522-4.477-10-10-10s-10 4.478-10 10v12.304c0 5.522 4.477 10 10 10z"/><path d="m461.731 257.301h-12.304c-5.523 0-10 4.478-10 10s4.477 10 10 10h12.304c5.523 0 10-4.478 10-10s-4.477-10-10-10z"/><path d="m400.018 267.301c0-5.522-4.477-10-10-10h-12.304c-5.523 0-10 4.478-10 10s4.477 10 10 10h12.304c5.523 0 10-4.478 10-10z"/><path d="m419.723 247.597c5.523 0 10-4.478 10-10v-12.305c0-5.522-4.477-10-10-10s-10 4.478-10 10v12.305c0 5.522 4.477 10 10 10z"/><path d="m409.723 309.31c0 5.522 4.477 10 10 10s10-4.478 10-10v-12.305c0-5.522-4.477-10-10-10s-10 4.478-10 10z"/><path d="m426.209 420.227c-17.096 0-31.004 13.908-31.004 31.004s13.909 31.004 31.004 31.004 31.004-13.908 31.004-31.004-13.908-31.004-31.004-31.004zm0 42.007c-6.068 0-11.004-4.937-11.004-11.004s4.937-11.004 11.004-11.004 11.004 4.937 11.004 11.004-4.936 11.004-11.004 11.004z"/><path d="m215.868 84.741c17.096 0 31.004-13.908 31.004-31.004s-13.908-31.004-31.004-31.004-31.004 13.908-31.004 31.004 13.908 31.004 31.004 31.004zm0-42.008c6.067 0 11.004 4.937 11.004 11.004s-4.937 11.004-11.004 11.004c-6.068 0-11.004-4.937-11.004-11.004s4.936-11.004 11.004-11.004z"/><path d="m509.072 40.354-37.423-37.422c-1.875-1.875-4.419-2.929-7.071-2.929s-5.196 1.054-7.071 2.929l-212.804 212.803-22.573-22.573c-10.455-10.454-26.685-12.566-39.467-5.134l-177.686 103.313c-4.468 2.598-6.22 8.171-4.042 12.858 42.319 91.082 115.787 164.551 206.87 206.87 1.359.631 2.793.933 4.208.933 3.462 0 6.807-1.804 8.651-4.976l103.312-177.686c7.433-12.781 5.322-29.011-5.134-39.467l-22.573-22.573 25.349-25.35c3.905-3.905 3.905-10.237 0-14.143-3.905-3.904-10.237-3.904-14.142 0l-25.349 25.35-23.28-23.28 205.73-205.731 23.281 23.28-116.744 116.744c-3.905 3.905-3.905 10.237 0 14.143 3.905 3.904 10.237 3.904 14.143 0l123.815-123.816c3.904-3.905 3.904-10.237 0-14.143zm-301.062 448.644c-15.701-7.73-30.816-16.455-45.283-26.068l34.813-55.346c2.94-4.675 1.535-10.849-3.141-13.789-4.675-2.94-10.849-1.534-13.789 3.141l-34.281 54.501c-32.851-24.246-61.89-53.326-86.092-86.212l55.469-30.36c4.845-2.652 6.623-8.729 3.971-13.573-2.652-4.845-8.727-6.622-13.573-3.972l-57.394 31.414c-9.471-14.302-18.071-29.236-25.703-44.74l129.555-75.328 58.318 58.318-36.259 36.259c-3.905 3.905-3.906 10.237 0 14.143 1.953 1.952 4.512 2.929 7.071 2.929s5.119-.977 7.071-2.929l36.26-36.259 58.318 58.317zm96.689-184.981c4.046 4.046 4.863 10.325 1.987 15.271l-12.948 22.269-123.292-123.291 22.269-12.948c4.947-2.876 11.226-2.059 15.272 1.987z"/><path d="m26.503 235.953c1.792 3.396 5.262 5.334 8.852 5.334 1.574 0 3.171-.373 4.66-1.158 4.884-2.578 6.753-8.628 4.175-13.512-7.892-14.951-2.15-33.536 12.802-41.429 2.243-1.185 4.628-2.089 7.089-2.688 4.656-1.134 7.854-5.411 7.623-10.197-.884-18.338 12.738-34.221 31.014-36.159 18.753-1.994 35.457 11.079 38.038 29.75.756 5.471 5.797 9.284 11.275 8.537 5.471-.757 9.292-5.805 8.536-11.275-4.069-29.435-30.409-50.038-59.959-46.9-26.19 2.778-46.318 23.735-48.708 49.25-1.445.6-2.862 1.267-4.247 1.997-24.702 13.04-34.19 43.747-21.15 68.45z"/><path d="m329.65 394.33c-4.458 3.261-5.428 9.518-2.167 13.975 7.396 10.113 7.625 23.864.568 34.219-7.53 11.049-21.602 15.705-34.219 11.324-5.216-1.816-10.916.948-12.727 6.166-1.812 5.217.949 10.915 6.167 12.727 5.321 1.848 10.795 2.736 16.21 2.736 16.094 0 31.663-7.849 41.096-21.689 11.814-17.336 11.431-40.358-.953-57.289-3.26-4.459-9.517-5.43-13.975-2.169z"/><circle cx="346.362" cy="203.062" r="10"/><circle cx="243.172" cy="144.44" r="10"/><circle cx="147.462" cy="79.804" r="10"/></g></g></svg>