<svg xmlns="http://www.w3.org/2000/svg" width="511pt" height="511pt" viewBox="0 -1 511.999 511"><path d="m282.672 289.469 139.285 139.285c1.465 1.465 3.387 2.195 5.305 2.195s3.84-.73 5.3-2.195a7.497 7.497 0 0 0 0-10.606L293.278 278.863a7.497 7.497 0 0 0-10.605 0 7.497 7.497 0 0 0 0 10.606zM163.46 159.652a7.497 7.497 0 0 0 0 10.606l37.622 37.62a7.473 7.473 0 0 0 5.305 2.196 7.47 7.47 0 0 0 5.3-2.195 7.497 7.497 0 0 0 0-10.606l-37.62-37.62a7.497 7.497 0 0 0-10.606 0zm0 0"/><path d="m252.176 290.395 120.797-133.688 8.988 8.07a13.553 13.553 0 0 0 9.07 3.465c3.715 0 7.418-1.508 10.094-4.469l2.375-2.628 8.453 7.636-3.355 3.711a20.307 20.307 0 0 0-5.25 14.746 20.322 20.322 0 0 0 6.71 14.137l20.364 18.398a20.29 20.29 0 0 0 14.742 5.25c5.457-.273 10.477-2.66 14.14-6.71l45.192-50.02c7.559-8.367 6.902-21.32-1.46-28.883l-20.364-18.398c-4.05-3.66-9.285-5.52-14.742-5.25a20.32 20.32 0 0 0-13.578 6.113l-8.461-7.645 3.05-3.382c5.024-5.555 4.59-14.164-.964-19.192l-67.68-61.234v-.004c-18.371-16.598-42.332-27.04-67.469-29.406-25.058-2.36-48.613 3.48-66.328 16.43a13.567 13.567 0 0 0-5.2 14.167 13.56 13.56 0 0 0 11.087 10.239c51.265 8.148 65.187 24.664 68.793 31.386 3.644 6.797 3.41 14.496-.72 23.532-1.858 4.074-1.589 8.648.528 12.363L199.891 243.156c-6.211-3.562-14.293-2.457-19.286 3.063l-8.984 9.945c-5.02 5.555-5.273 13.773-1.023 19.598l-31.286 22.129c-.046.035-.093.066-.14.101a238.686 238.686 0 0 0-34.824 31.617l-89.676 99.246c-17.805 19.704-16.258 50.22 3.445 68.024 8.926 8.066 20.29 12.43 32.23 12.43.829 0 1.66-.02 2.497-.063 12.847-.648 24.672-6.266 33.297-15.812l89.68-99.247a238.713 238.713 0 0 0 27.933-37.843l.086-.145 18.851-33.363a15.402 15.402 0 0 0 7.84 2.125 15.458 15.458 0 0 0 11.559-5.125l8.984-9.945a15.444 15.444 0 0 0 3.992-11.215 15.439 15.439 0 0 0-2.89-8.281zm-10.895-10.317-30.023-27.129 120.43-133.285 30.117 27.027zm227.406-149.332a5.424 5.424 0 0 1 3.93 1.399l20.36 18.394a5.452 5.452 0 0 1 .39 7.695l-45.191 50.02a5.43 5.43 0 0 1-3.77 1.789 5.42 5.42 0 0 1-3.926-1.398l-20.363-18.399a5.452 5.452 0 0 1-.39-7.695l45.195-50.016a5.406 5.406 0 0 1 3.766-1.789zm-24.402 2.25-22.273 24.656-8.453-7.636 22.277-24.657zM258.172 27.602c31.203-20.348 80.648-14.438 112.062 13.941l66.637 60.293-45.934 50.84-56.41-50.617c5.703-13.043 5.664-25.121-.129-35.918-12.87-23.996-51.863-34.332-76.226-38.54zm-67.348 321.14a223.776 223.776 0 0 1-26.137 35.387l-89.675 99.246c-5.938 6.574-14.082 10.441-22.93 10.89-8.848.45-17.336-2.577-23.91-8.515-6.57-5.938-10.438-14.082-10.883-22.926-.45-8.847 2.574-17.34 8.512-23.91l89.68-99.25a223.973 223.973 0 0 1 32.562-29.574l33.691-23.828 29.387 26.554zm49.117-48.91-8.984 9.945a.515.515 0 0 1-.383.18c-.23-.012-.355-.102-.394-.14l-47.387-42.813a.555.555 0 0 1-.04-.781l8.985-9.946a.555.555 0 0 1 .782-.039l47.382 42.817a.512.512 0 0 1 .184.379.51.51 0 0 1-.145.398zm0 0"/><path d="M33.71 164.402c19.497 15.774 45.79 22.317 72.134 17.957 10.785-1.789 21.965 1.887 29.902 9.825l35.129 35.125a7.464 7.464 0 0 0 5.3 2.195 7.502 7.502 0 0 0 5.305-12.805l-35.125-35.125c-11.355-11.351-27.414-16.59-42.96-14.015-22.122 3.664-44.082-1.739-60.25-14.82-18.446-14.923-28.801-37.626-28.114-61.266l45.23 36.593c12.626 10.215 31.204 8.254 41.41-4.37L122.45 98.02c4.946-6.118 7.215-13.79 6.39-21.61-.823-7.824-4.648-14.855-10.76-19.8L72.843 20.011c24.05-5.887 49.258.199 68.027 16.586 16.504 14.41 25.445 36.379 24.527 60.273-.543 14.215 4.762 27.984 14.555 37.781l45.86 45.86a7.504 7.504 0 0 0 10.605 0 7.502 7.502 0 0 0 0-10.61l-45.86-45.855c-6.847-6.852-10.554-16.547-10.167-26.602 1.09-28.445-9.72-54.742-29.657-72.148C127.266 4.809 95.387-2.234 65.461 6.465a13.24 13.24 0 0 0-9.313 10.14 13.272 13.272 0 0 0 4.672 12.977l47.82 38.688a14.35 14.35 0 0 1 5.282 9.714 14.335 14.335 0 0 1-3.137 10.602l-20.773 25.68c-5.012 6.187-14.121 7.152-20.313 2.14L21.883 77.72a13.294 13.294 0 0 0-13.68-1.864 13.232 13.232 0 0 0-7.96 11.207c-2.169 29.72 10.343 58.63 33.468 77.34zM499.29 432.773l-181.282-181.28a7.502 7.502 0 0 0-10.605 10.61l181.28 181.276c11.098 11.101 11.098 29.164 0 40.262-11.101 11.097-29.16 11.105-40.253.004L277.53 312.75a7.502 7.502 0 0 0-10.61 0 7.504 7.504 0 0 0 0 10.605l170.9 170.899c8.472 8.473 19.6 12.707 30.73 12.707 11.129 0 22.265-4.238 30.738-12.715 16.945-16.945 16.945-44.523 0-61.473zm0 0"/></svg>